<?xml version="1.0" encoding="utf-8"?>
<!-- Generator: Adobe Illustrator 19.1.0, SVG Export Plug-In . SVG Version: 6.00 Build 0)  -->
<svg version="1.1" id="Layer_1" xmlns="http://www.w3.org/2000/svg" xmlns:xlink="http://www.w3.org/1999/xlink" x="0px" y="0px"
	 viewBox="0 0 65 65" style="enable-background:new 0 0 65 65;" xml:space="preserve">
<style type="text/css">
	.st0{clip-path:url(#SVGID_2_);fill:#566BB3;}
</style>
<g>
	<defs>
		<rect id="SVGID_1_" width="65" height="65"/>
	</defs>
	<clipPath id="SVGID_2_">
		<use xlink:href="#SVGID_1_"  style="overflow:visible;"/>
	</clipPath>
	<path class="st0" d="M32.9,16.5c-0.3,0-0.5-0.2-0.5-0.5v-3.7c0-0.3,0.2-0.5,0.5-0.5c0.3,0,0.5,0.2,0.5,0.5V16
		C33.4,16.3,33.2,16.5,32.9,16.5"/>
	<path class="st0" d="M21.4,21.8c-0.1,0-0.3,0-0.4-0.1l-2.6-2.6c-0.2-0.2-0.2-0.5,0-0.7c0.2-0.2,0.5-0.2,0.7,0l2.6,2.6
		c0.2,0.2,0.2,0.5,0,0.7C21.7,21.8,21.5,21.8,21.4,21.8"/>
	<path class="st0" d="M1.1,32.5c0-17.3,14.1-31.4,31.4-31.4s31.4,14.1,31.4,31.4S49.8,63.9,32.5,63.9S1.1,49.8,1.1,32.5 M0,32.5
		C0,50.4,14.6,65,32.5,65S65,50.4,65,32.5C65,14.6,50.4,0,32.5,0S0,14.6,0,32.5"/>
	<path class="st0" d="M28.4,42.9h8.7c0.1-2.1,0.8-4.2,2-6l0,0l0,0c1.8-1.7,2.7-4,2.7-6.5c0-5-4.1-9.1-9.1-9.1c-5,0-9.1,4.1-9.1,9.1
		c0,2.5,1,4.8,2.7,6.5l0,0l0,0C27.6,38.8,28.3,40.8,28.4,42.9 M38.1,43.9H27.4v-0.5c0-2.1-0.6-4.1-1.8-5.9c-1.9-1.9-3-4.5-3-7.2
		c0-5.6,4.6-10.2,10.2-10.2c5.6,0,10.2,4.6,10.2,10.2c0,2.7-1.1,5.3-3,7.2c-1.2,1.8-1.8,3.8-1.8,5.9V43.9z"/>
	<path class="st0" d="M34.4,52.2H31c-2,0-3.7-1.7-3.7-3.8v-4.4c0-0.3,0.2-0.5,0.5-0.5c0.3,0,0.5,0.2,0.5,0.5v4.4
		c0,1.5,1.2,2.8,2.6,2.8h3.4c1.5,0,2.6-1.3,2.6-2.8v-4.4c0-0.3,0.2-0.5,0.5-0.5s0.5,0.2,0.5,0.5v4.4C38.1,50.4,36.4,52.2,34.4,52.2"
		/>
	<path class="st0" d="M32.6,43.8c-0.2,0-0.4-0.2-0.5-0.4c-0.1-0.3,0.1-0.6,0.4-0.6l0.2,0c0.5-0.1,1.5-0.4,1.8-0.6
		c-0.3-0.2-1.2-0.5-1.8-0.6C31.2,41.2,30,40.9,30,40v0c0-1,1.3-1.3,2.6-1.6c0.5-0.1,1.5-0.4,1.8-0.6c-0.3-0.2-1.2-0.5-1.8-0.6
		c-1.3-0.3-2.6-0.6-2.6-1.6c0-1,1.3-1.3,2.6-1.6c0.5-0.1,1.5-0.4,1.8-0.6c-0.3-0.2-1.2-0.5-1.8-0.6c-1.3-0.3-2.6-0.6-2.6-1.6
		c0-1,1.3-1.3,2.6-1.6c0.6-0.1,1.7-0.4,1.8-0.6c0-0.3,0.2-0.5,0.5-0.5c0.3,0,0.5,0.2,0.5,0.5c0,0.9-1.3,1.3-2.6,1.6
		c-0.5,0.1-1.5,0.4-1.8,0.6c0.3,0.2,1.2,0.5,1.8,0.6c1.3,0.3,2.6,0.6,2.6,1.6c0,1-1.3,1.3-2.6,1.6c-0.5,0.1-1.5,0.4-1.8,0.6
		c0.3,0.2,1.2,0.5,1.8,0.6c1.3,0.3,2.6,0.6,2.6,1.6c0,1-1.3,1.3-2.6,1.6c-0.6,0.1-1.6,0.4-1.8,0.6c0.2,0.2,1.3,0.5,1.8,0.6
		c1.3,0.3,2.6,0.6,2.6,1.6c0,1-1.3,1.3-2.6,1.6l-0.2,0C32.6,43.8,32.6,43.8,32.6,43.8"/>
	<path class="st0" d="M37.3,49.4h-9.2c-0.3,0-0.5-0.2-0.5-0.5c0-0.3,0.2-0.5,0.5-0.5h9.2c0.3,0,0.5,0.2,0.5,0.5
		C37.8,49.1,37.6,49.4,37.3,49.4"/>
	<path class="st0" d="M37.4,46.8H28c-0.3,0-0.5-0.2-0.5-0.5c0-0.3,0.2-0.5,0.5-0.5h9.4c0.3,0,0.5,0.2,0.5,0.5
		C37.9,46.5,37.7,46.8,37.4,46.8"/>
	<path class="st0" d="M19.3,30.7h-3.7c-0.3,0-0.5-0.2-0.5-0.5c0-0.3,0.2-0.5,0.5-0.5h3.7c0.3,0,0.5,0.2,0.5,0.5
		C19.8,30.4,19.6,30.7,19.3,30.7"/>
	<path class="st0" d="M18.9,42.1c-0.1,0-0.3,0-0.4-0.2c-0.2-0.2-0.2-0.5,0-0.7l2.6-2.6c0.2-0.2,0.5-0.2,0.7,0c0.2,0.2,0.2,0.5,0,0.7
		L19.3,42C19.2,42.1,19.1,42.1,18.9,42.1"/>
	<path class="st0" d="M49.3,30.7h-3.7c-0.3,0-0.5-0.2-0.5-0.5c0-0.3,0.2-0.5,0.5-0.5h3.7c0.3,0,0.5,0.2,0.5,0.5
		C49.9,30.4,49.6,30.7,49.3,30.7"/>
	<path class="st0" d="M46.1,42.1c-0.1,0-0.3,0-0.4-0.2l-2.6-2.6c-0.2-0.2-0.2-0.5,0-0.7s0.5-0.2,0.7,0l2.6,2.6
		c0.2,0.2,0.2,0.5,0,0.7C46.3,42.1,46.2,42.1,46.1,42.1"/>
	<path class="st0" d="M43.6,21.8c-0.1,0-0.3,0-0.4-0.2c-0.2-0.2-0.2-0.5,0-0.7l2.6-2.6c0.2-0.2,0.5-0.2,0.7,0s0.2,0.5,0,0.7L44,21.7
		C43.9,21.8,43.7,21.8,43.6,21.8"/>
</g>
</svg>
