<?xml version="1.0" encoding="utf-8"?>
<!-- Generator: Adobe Illustrator 19.1.0, SVG Export Plug-In . SVG Version: 6.00 Build 0)  -->
<svg version="1.1" id="Layer_1" xmlns="http://www.w3.org/2000/svg" xmlns:xlink="http://www.w3.org/1999/xlink" x="0px" y="0px"
	 viewBox="0 0 103.9 103.9" style="enable-background:new 0 0 103.9 103.9;" xml:space="preserve">
<style type="text/css">
	.st0{clip-path:url(#SVGID_2_);fill:#566BB3;}
	.st1{clip-path:url(#SVGID_2_);fill:#FFFFFF;}
</style>
<g>
	<defs>
		<rect id="SVGID_1_" x="0" width="103.9" height="103.9"/>
	</defs>
	<clipPath id="SVGID_2_">
		<use xlink:href="#SVGID_1_"  style="overflow:visible;"/>
	</clipPath>
	<path class="st0" d="M52,103.9c28.7,0,52-23.3,52-52S80.7,0,52,0S0,23.3,0,52S23.3,103.9,52,103.9"/>
	<path class="st1" d="M52.6,26.4c-0.5,0-0.8-0.4-0.8-0.8v-5.8c0-0.5,0.4-0.8,0.8-0.8c0.5,0,0.8,0.4,0.8,0.8v5.8
		C53.5,26.1,53.1,26.4,52.6,26.4"/>
	<path class="st1" d="M34.2,34.9c-0.2,0-0.4-0.1-0.6-0.2l-4.1-4.1c-0.3-0.3-0.3-0.8,0-1.2c0.3-0.3,0.8-0.3,1.2,0l4.1,4.1
		c0.3,0.3,0.3,0.8,0,1.2C34.6,34.8,34.4,34.9,34.2,34.9"/>
	<path class="st1" d="M45.4,68.6h13.9c0.2-3.4,1.2-6.6,3.2-9.5l0-0.1l0.1-0.1c2.8-2.8,4.3-6.5,4.3-10.4c0-8-6.5-14.6-14.6-14.6
		s-14.6,6.5-14.6,14.6c0,3.9,1.5,7.6,4.3,10.4l0.1,0.1l0,0.1C44.1,62,45.2,65.2,45.4,68.6 M60.9,70.2H43.7v-0.8c0-3.3-1-6.5-2.9-9.4
		c-3.1-3.1-4.8-7.1-4.8-11.5c0-9,7.3-16.2,16.2-16.2c8.9,0,16.2,7.3,16.2,16.2c0,4.3-1.7,8.4-4.8,11.5c-1.9,2.8-2.9,6.1-2.9,9.4
		V70.2z"/>
	<path class="st1" d="M55,83.4h-5.4c-3.2,0-5.9-2.8-5.9-6.1v-7c0-0.5,0.4-0.8,0.8-0.8c0.5,0,0.8,0.4,0.8,0.8v7
		c0,2.5,1.9,4.5,4.2,4.5H55c2.3,0,4.2-2,4.2-4.5v-7c0-0.5,0.4-0.8,0.8-0.8c0.5,0,0.8,0.4,0.8,0.8v7C60.9,80.7,58.2,83.4,55,83.4"/>
	<path class="st1" d="M52,70.1c-0.4,0-0.7-0.3-0.8-0.6c-0.1-0.4,0.2-0.9,0.6-1l0.3-0.1c0.9-0.2,2.5-0.6,2.9-1c-0.4-0.3-2-0.7-2.9-1
		c-2.2-0.5-4.2-1-4.2-2.6v-0.1c0-1.5,2-2,4.2-2.6c0.9-0.2,2.5-0.6,2.9-1c-0.4-0.4-2-0.7-2.9-1c-2.2-0.5-4.2-1-4.2-2.6
		c0-1.5,2-2,4.2-2.6c0.9-0.2,2.5-0.6,2.9-1c-0.4-0.3-2-0.7-2.9-1c-2.2-0.5-4.2-1-4.2-2.6c0-1.5,2-2,4.2-2.6c0.9-0.2,2.6-0.6,2.9-1
		c0-0.4,0.4-0.8,0.8-0.8c0.5,0,0.8,0.4,0.8,0.8c0,1.5-2,2-4.2,2.6c-0.9,0.2-2.5,0.6-2.9,1c0.4,0.3,2,0.7,2.9,1
		c2.2,0.5,4.2,1,4.2,2.6s-2,2-4.2,2.6c-0.9,0.2-2.5,0.6-2.9,1c0.4,0.4,2,0.7,2.9,1c2.2,0.5,4.2,1,4.2,2.6c0,1.5-2,2-4.2,2.6
		c-0.9,0.2-2.6,0.6-2.9,1c0.3,0.4,2,0.8,2.9,1c2.2,0.5,4.2,1,4.2,2.6c0,1.5-2,2-4.2,2.6L52.2,70C52.2,70,52.1,70.1,52,70.1"/>
	<path class="st1" d="M59.6,78.9H45c-0.5,0-0.8-0.4-0.8-0.8c0-0.5,0.4-0.8,0.8-0.8h14.7c0.5,0,0.8,0.4,0.8,0.8
		C60.5,78.6,60.1,78.9,59.6,78.9"/>
	<path class="st1" d="M59.8,74.8H44.8c-0.5,0-0.8-0.4-0.8-0.8c0-0.5,0.4-0.8,0.8-0.8h15.1c0.5,0,0.8,0.4,0.8,0.8
		C60.7,74.4,60.3,74.8,59.8,74.8"/>
	<path class="st1" d="M30.9,49H25c-0.5,0-0.8-0.4-0.8-0.8c0-0.5,0.4-0.8,0.8-0.8h5.8c0.5,0,0.8,0.4,0.8,0.8
		C31.7,48.6,31.3,49,30.9,49"/>
	<path class="st1" d="M30.3,67.3c-0.2,0-0.4-0.1-0.6-0.2c-0.3-0.3-0.3-0.8,0-1.2l4.1-4.1c0.3-0.3,0.8-0.3,1.2,0
		c0.3,0.3,0.3,0.8,0,1.2l-4.1,4.1C30.7,67.2,30.5,67.3,30.3,67.3"/>
	<path class="st1" d="M78.9,49H73c-0.5,0-0.8-0.4-0.8-0.8c0-0.5,0.4-0.8,0.8-0.8h5.8c0.5,0,0.8,0.4,0.8,0.8
		C79.7,48.6,79.3,49,78.9,49"/>
	<path class="st1" d="M73.6,67.3c-0.2,0-0.4-0.1-0.6-0.2L68.9,63c-0.3-0.3-0.3-0.8,0-1.2c0.3-0.3,0.8-0.3,1.2,0l4.1,4.1
		c0.3,0.3,0.3,0.8,0,1.2C74.1,67.2,73.9,67.3,73.6,67.3"/>
	<path class="st1" d="M69.7,34.9c-0.2,0-0.4-0.1-0.6-0.2c-0.3-0.3-0.3-0.8,0-1.2l4.1-4.1c0.3-0.3,0.8-0.3,1.2,0
		c0.3,0.3,0.3,0.8,0,1.2l-4.1,4.1C70.1,34.8,69.9,34.9,69.7,34.9"/>
</g>
</svg>
