<?xml version="1.0" encoding="utf-8"?>
<!-- Generator: Adobe Illustrator 19.1.0, SVG Export Plug-In . SVG Version: 6.00 Build 0)  -->
<svg version="1.1" id="Layer_1" xmlns="http://www.w3.org/2000/svg" xmlns:xlink="http://www.w3.org/1999/xlink" x="0px" y="0px"
	 viewBox="0 0 114.6 114.6" style="enable-background:new 0 0 114.6 114.6;" xml:space="preserve">
<style type="text/css">
	.st0{clip-path:url(#SVGID_2_);fill:#566BB3;}
	.st1{fill:#FFFFFF;}
	.st2{clip-path:url(#SVGID_4_);fill:#566BB3;}
</style>
<g>
	<defs>
		<rect id="SVGID_1_" width="114.6" height="114.6"/>
	</defs>
	<clipPath id="SVGID_2_">
		<use xlink:href="#SVGID_1_"  style="overflow:visible;"/>
	</clipPath>
	<path class="st0" d="M57.3,114.6c31.7,0,57.3-25.7,57.3-57.3S89,0,57.3,0S0,25.7,0,57.3S25.7,114.6,57.3,114.6"/>
</g>
<rect x="23.8" y="43.4" class="st1" width="67" height="3.5"/>
<rect x="23.8" y="56.6" class="st1" width="67" height="3.5"/>
<rect x="23.8" y="69.9" class="st1" width="67" height="3.5"/>
<g>
	<defs>
		<rect id="SVGID_3_" width="114.6" height="114.6"/>
	</defs>
	<clipPath id="SVGID_4_">
		<use xlink:href="#SVGID_3_"  style="overflow:visible;"/>
	</clipPath>
	<path class="st2" d="M2,57.3C2,26.8,26.8,2,57.3,2s55.3,24.8,55.3,55.3s-24.8,55.3-55.3,55.3S2,87.8,2,57.3 M0,57.3
		c0,31.6,25.7,57.3,57.3,57.3s57.3-25.7,57.3-57.3S88.9,0,57.3,0S0,25.7,0,57.3"/>
</g>
</svg>
