<?xml version="1.0" encoding="utf-8"?>
<!-- Generator: Adobe Illustrator 19.1.0, SVG Export Plug-In . SVG Version: 6.00 Build 0)  -->
<svg version="1.1" id="Layer_1" xmlns="http://www.w3.org/2000/svg" xmlns:xlink="http://www.w3.org/1999/xlink" x="0px" y="0px"
	 viewBox="0 0 133.6 133.6" style="enable-background:new 0 0 133.6 133.6;" xml:space="preserve">
<style type="text/css">
	.st0{clip-path:url(#SVGID_2_);fill:#566BB3;}
	.st1{clip-path:url(#SVGID_2_);fill:none;stroke:#566BB3;}
</style>
<g>
	<defs>
		<rect id="SVGID_1_" width="133.6" height="133.6"/>
	</defs>
	<clipPath id="SVGID_2_">
		<use xlink:href="#SVGID_1_"  style="overflow:visible;"/>
	</clipPath>
	<path class="st0" d="M2.3,66.8c0-35.6,28.9-64.5,64.5-64.5s64.5,28.9,64.5,64.5s-28.9,64.5-64.5,64.5S2.3,102.4,2.3,66.8 M0,66.8
		c0,36.8,30,66.8,66.8,66.8s66.8-30,66.8-66.8S103.6,0,66.8,0S0,30,0,66.8"/>
	<path class="st1" d="M52.1,78c-4.3,0-8.1-1.4-11-3.7c0.3,7.1,5.1,12.7,11,12.7s10.7-5.6,11-12.7C60.3,76.6,56.4,78,52.1,78z
		 M62.2,62.8c2.2,0,4.2,0.2,6.1,0.6c-1.2-2.8-3.5-4.6-6.1-4.6c-2.6,0-4.9,1.9-6.1,4.6C58,63,60.1,62.8,62.2,62.8z M42,62.8
		c2.2,0,4.2,0.2,6.1,0.6c-1.2-2.8-3.5-4.6-6.1-4.6c-2.6,0-4.9,1.9-6.1,4.6C37.8,63,39.8,62.8,42,62.8z M59.9,48.1
		c-2.5,0.3-5.2,0.5-7.8,0.5c-7.7,0-15-1.4-21.3-3.9c-1.1,4.4-1.8,9.1-1.8,14.1c0,20.3,10.3,36.8,23,36.8c3.5,0,6.7-1.2,9.7-3.4
		 M72.3,76.7c1.8-5.3,2.9-11.3,2.9-17.8c0-5-0.6-9.8-1.8-14.1c-4.1,1.6-8.7,2.8-13.4,3.4 M72.3,76.7c-0.5,1.5-1.1,2.8-1.7,4.2
		 M70.6,80.8c-2.3,4.9-5.3,8.8-8.8,11.4 M59.9,48.1c2.1-3.8,4.5-7.2,7.1-10.2C71.5,43,77.4,47.6,84.2,51c6.9,3.5,14,5.5,20.8,6.1
		c-0.9,4.4-2.5,8.9-4.8,13.4C91.1,88.7,74.4,98.7,63.1,93c-0.4-0.2-0.9-0.5-1.3-0.7 M70.6,80.8c3.3,1.8,6.1,4,7.9,6
		c1.3-3.1-1.4-7.5-6.2-10.2 M86.9,68.2c1.9,1,3.7,2.1,5.2,3.3c0.2-3-1-5.7-3.4-6.9c-2.4-1.2-5.2-0.6-7.5,1.4
		C83.1,66.5,85,67.2,86.9,68.2z"/>
</g>
</svg>
