<?xml version="1.0" encoding="utf-8"?>
<!-- Generator: Adobe Illustrator 19.1.0, SVG Export Plug-In . SVG Version: 6.00 Build 0)  -->
<svg version="1.1" id="Layer_1" xmlns="http://www.w3.org/2000/svg" xmlns:xlink="http://www.w3.org/1999/xlink" x="0px" y="0px"
	 viewBox="0 0 119.3 119.3" style="enable-background:new 0 0 119.3 119.3;" xml:space="preserve">
<style type="text/css">
	.st0{clip-path:url(#SVGID_2_);fill:#566BB3;}
</style>
<g>
	<defs>
		<rect id="SVGID_1_" width="119.3" height="119.3"/>
	</defs>
	<clipPath id="SVGID_2_">
		<use xlink:href="#SVGID_1_"  style="overflow:visible;"/>
	</clipPath>
	<path class="st0" d="M2.1,59.7c0-31.8,25.8-57.6,57.6-57.6s57.6,25.8,57.6,57.6s-25.8,57.6-57.6,57.6S2.1,91.4,2.1,59.7 M0,59.7
		c0,32.9,26.8,59.7,59.7,59.7s59.7-26.8,59.7-59.7S92.6,0,59.7,0S0,26.8,0,59.7"/>
	<path class="st0" d="M86.7,74.3c-2.4-0.7-7-1.6-13.6-1.6c-3.2,0-5.9,0.2-8.2,0.5c-2.1,0.3-3.7,0.6-4.8,1v-33
		c1.9-0.6,6.2-1.7,13-1.7c7.2,0,11.8,1.2,13.6,1.8V74.3z M86.7,80.3c-2.4-0.7-7-1.6-14-1.6c-7.4,0-11.5,1-13.6,1.7
		c-2.2-0.7-6.9-1.7-14.5-1.7c-6.6,0-10.7,0.8-12.9,1.5v-2.7c0.1-0.1,0.3-0.1,0.5-0.2c1-0.3,2.6-0.7,4.9-1.1c1.9-0.3,4.4-0.4,7.5-0.4
		c7.2,0,11.6,1,13.6,1.6l0.1,0.1c0.4,0.2,0.9,0.2,1.3,0.1c0.1-0.1,0.3-0.1,0.5-0.2c1.1-0.3,2.9-0.8,5.5-1.2c1.9-0.2,4.2-0.4,7.1-0.4
		c7.8,0,12.3,1.2,14,1.8V80.3z M31.7,41.2c1.8-0.6,6.1-1.8,13.3-1.8c6.7,0,11.1,1,13.3,1.7v33.1c-2.5-0.7-7-1.6-13.3-1.6
		c-3,0-5.6,0.2-7.7,0.5c-2.5,0.3-4.4,0.7-5.6,1.1V41.2z M88.8,38.8c-0.2-0.1-5.5-2.4-15.7-2.4c-7,0-11.6,1.1-13.9,1.8
		c-2.3-0.7-7-1.8-14.1-1.8c-10.2,0-15.3,2.3-15.5,2.4c-0.5,0.2-0.9,0.8-0.9,1.4v42.2c0,0.5,0.3,1,0.8,1.3c0.5,0.3,1.1,0.3,1.5,0
		c0,0,3.5-2,13.6-2c7.2,0,11.6,1,13.6,1.6l0.1,0.1c0.4,0.2,0.9,0.2,1.3,0.1c1.3-0.5,5.1-1.8,13.1-1.8c10.3,0,14.8,2.1,14.9,2.1
		c0.2,0.1,0.4,0.1,0.6,0.1c0.3,0,0.6-0.1,0.8-0.2c0.4-0.3,0.7-0.8,0.7-1.3V40.1C89.7,39.5,89.4,39,88.8,38.8"/>
</g>
</svg>
