<?xml version="1.0" encoding="utf-8"?>
<!-- Generator: Adobe Illustrator 19.1.0, SVG Export Plug-In . SVG Version: 6.00 Build 0)  -->
<svg version="1.1" id="Layer_1" xmlns="http://www.w3.org/2000/svg" xmlns:xlink="http://www.w3.org/1999/xlink" x="0px" y="0px"
	 viewBox="0 0 236.8 236.8" style="enable-background:new 0 0 236.8 236.8;" xml:space="preserve">
<style type="text/css">
	.st0{fill:#326367;}
	.st1{fill:#FFFFFF;}
</style>
<path class="st0" d="M0,118.4C0,53.1,53.1,0,118.4,0s118.4,53.1,118.4,118.4s-53.1,118.4-118.4,118.4C53.1,236.7,0,183.6,0,118.4"/>
<path class="st1" d="M161.3,109.4H185c0,0-4.8-49-54-57c0,0-44.7-10.5-70.7,31.7c0,0-24.8,44,9.8,80.8c0,0,41.8,44,95.2,2.2
	l19.8,18.3v-58h-57.8l20.2,20.2c0,0,3.8,1.8-1.8,5c0,0-26.7,22.5-55.7,0c0,0-36.7-34.9-0.5-68c0,0,24.8-24.7,58,0
	C147.5,84.7,159.3,93.7,161.3,109.4z"/>
</svg>
