<?xml version="1.0" encoding="utf-8"?>
<!-- Generator: Adobe Illustrator 19.1.0, SVG Export Plug-In . SVG Version: 6.00 Build 0)  -->
<svg version="1.1" id="Layer_2" xmlns="http://www.w3.org/2000/svg" xmlns:xlink="http://www.w3.org/1999/xlink" x="0px" y="0px"
	 viewBox="0 0 240.7 240.7" style="enable-background:new 0 0 240.7 240.7;" xml:space="preserve">
<style type="text/css">
	.st0{fill:#306266;}
	.st1{fill:none;stroke:#316266;stroke-width:4;stroke-miterlimit:10;}
</style>
<path class="st0" d="M163.3,111.4H187c0,0-4.8-49-54-57c0,0-44.7-10.5-70.7,31.7c0,0-24.8,44,9.8,80.8c0,0,41.8,44,95.2,2.2
	l19.8,18.3v-58h-57.8l20.2,20.2c0,0,3.8,1.8-1.8,5c0,0-26.7,22.5-55.7,0c0,0-36.7-34.9-0.5-68c0,0,24.8-24.7,58,0
	C149.5,86.7,161.3,95.7,163.3,111.4z"/>
<path class="st1" d="M2,120.4C2,55.1,55.1,2,120.4,2c65.3,0,118.4,53.1,118.4,118.4s-53.1,118.4-118.4,118.4
	C55.1,238.7,2,185.6,2,120.4"/>
</svg>
