<?xml version="1.0" encoding="utf-8"?>
<!-- Generator: Adobe Illustrator 19.1.0, SVG Export Plug-In . SVG Version: 6.00 Build 0)  -->
<svg version="1.1" id="_x2014_ÎÓÈ_x5F_1" xmlns="http://www.w3.org/2000/svg" xmlns:xlink="http://www.w3.org/1999/xlink"
	 x="0px" y="0px" viewBox="0 0 55 55" style="enable-background:new 0 0 55 55;" xml:space="preserve">
<style type="text/css">
	.st0{fill:#2F6165;}
	.st1{fill:#306165;stroke:#306165;stroke-width:0.5;stroke-miterlimit:10;}
</style>
<g id="XMLID_162_">
	<path id="XMLID_163_" class="st0" d="M0,27.5C0,42.7,12.3,55,27.5,55S55,42.7,55,27.5C55,12.3,42.7,0,27.5,0C12.3,0,0,12.3,0,27.5z
		 M1,27.5C1,12.9,12.9,1,27.5,1s26.6,11.9,26.6,26.6S42.2,54.1,27.5,54.1S1,42.2,1,27.5z"/>
</g>
<g>
	<g>
		<path class="st1" d="M44.2,43.3H10.8c-0.2,0-0.3-0.1-0.3-0.3V24.2c0-0.2,0.1-0.3,0.3-0.3h2.1c0.2,0,0.3,0.1,0.3,0.3
			c0,0.2-0.1,0.3-0.3,0.3h-1.8v18.2h32.8l0-18.2h-2.1c-0.2,0-0.3-0.1-0.3-0.3c0-0.2,0.1-0.3,0.3-0.3h2.4c0.1,0,0.2,0,0.2,0.1
			c0.1,0.1,0.1,0.1,0.1,0.2l0,18.8C44.5,43.2,44.4,43.3,44.2,43.3z"/>
		<path class="st1" d="M21.2,24.6h-3.9c-0.2,0-0.3-0.1-0.3-0.3c0-0.2,0.1-0.3,0.3-0.3h3.9c0.2,0,0.3,0.1,0.3,0.3
			C21.5,24.4,21.4,24.6,21.2,24.6z"/>
		<path class="st1" d="M22.6,27.8h-7c-0.2,0-0.3-0.1-0.3-0.3c0-0.2,0.1-0.3,0.3-0.3h7c0.2,0,0.3,0.1,0.3,0.3
			C22.9,27.7,22.8,27.8,22.6,27.8z"/>
		<g>
			<path class="st1" d="M22.6,31.1h-7c-0.2,0-0.3-0.1-0.3-0.3c0-0.2,0.1-0.3,0.3-0.3h7c0.2,0,0.3,0.1,0.3,0.3
				C22.9,30.9,22.8,31.1,22.6,31.1z"/>
			<path class="st1" d="M25.1,34.3h-9.4c-0.2,0-0.3-0.1-0.3-0.3c0-0.2,0.1-0.3,0.3-0.3h9.4c0.2,0,0.3,0.1,0.3,0.3
				C25.4,34.2,25.2,34.3,25.1,34.3z"/>
			<path class="st1" d="M25.1,37.6h-9.4c-0.2,0-0.3-0.1-0.3-0.3c0-0.2,0.1-0.3,0.3-0.3h9.4c0.2,0,0.3,0.1,0.3,0.3
				C25.4,37.5,25.2,37.6,25.1,37.6z"/>
		</g>
		<g>
			<path class="st1" d="M39.3,31.1h-6.9c-0.2,0-0.3-0.1-0.3-0.3c0-0.2,0.1-0.3,0.3-0.3h6.9c0.2,0,0.3,0.1,0.3,0.3
				C39.7,30.9,39.5,31.1,39.3,31.1z"/>
			<path class="st1" d="M39.3,34.3H30c-0.2,0-0.3-0.1-0.3-0.3c0-0.2,0.1-0.3,0.3-0.3h9.4c0.2,0,0.3,0.1,0.3,0.3
				C39.7,34.2,39.5,34.3,39.3,34.3z"/>
			<path class="st1" d="M39.3,37.6H30c-0.2,0-0.3-0.1-0.3-0.3c0-0.2,0.1-0.3,0.3-0.3h9.4c0.2,0,0.3,0.1,0.3,0.3
				C39.7,37.5,39.5,37.6,39.3,37.6z"/>
		</g>
		<path class="st1" d="M37.7,24.6h-3.9c-0.2,0-0.3-0.1-0.3-0.3c0-0.2,0.1-0.3,0.3-0.3h3.9c0.2,0,0.3,0.1,0.3,0.3
			C38,24.4,37.9,24.6,37.7,24.6z"/>
		<path class="st1" d="M39.3,27.8h-6.9c-0.2,0-0.3-0.1-0.3-0.3c0-0.2,0.1-0.3,0.3-0.3h6.9c0.2,0,0.3,0.1,0.3,0.3
			C39.7,27.7,39.5,27.8,39.3,27.8z"/>
		<g>
			<path class="st1" d="M41.8,40.9H13.2c-0.2,0-0.3-0.1-0.3-0.3V21c0-0.2,0.1-0.3,0.3-0.3H20c0.2,0,0.3,0.1,0.3,0.3
				c0,0.2-0.1,0.3-0.3,0.3h-6.4v19h27.9l0-19h-6.4c-0.2,0-0.3-0.1-0.3-0.3c0-0.2,0.1-0.3,0.3-0.3h6.7c0.1,0,0.2,0,0.2,0.1
				c0.1,0.1,0.1,0.1,0.1,0.2l0,19.6C42.1,40.7,41.9,40.9,41.8,40.9z"/>
			<path class="st1" d="M27.5,40.9c-0.2,0-0.3-0.1-0.3-0.3v-8.2c0-0.2,0.1-0.3,0.3-0.3c0.2,0,0.3,0.1,0.3,0.3v8.2
				C27.8,40.7,27.7,40.9,27.5,40.9z"/>
		</g>
	</g>
	<g>
		<g>
			<path class="st1" d="M30.1,28h-5.3c-0.2,0-0.3-0.1-0.3-0.3v-1.9c0-0.1-0.2-0.2-0.4-0.4c-1.5-1.1-2.5-2.8-2.5-4.8
				c0-3.2,2.6-5.8,5.8-5.8c3.2,0,5.8,2.6,5.8,5.8c0,2-1,3.8-2.5,4.8c-0.4,0.3-0.4,0.8-0.4,0.8l0,1.5C30.5,27.9,30.3,28,30.1,28z
				 M25.2,27.4h4.6v-1.1c0,0-0.1-0.8,0.7-1.3c1.4-0.9,2.2-2.5,2.2-4.3c0-2.9-2.3-5.2-5.2-5.2c-2.9,0-5.2,2.3-5.2,5.2
				c0,1.7,0.8,3.3,2.2,4.3c0.5,0.4,0.7,0.6,0.7,0.7c0,0,0,0.1,0,0.1V27.4z"/>
			<path class="st1" d="M30.1,29.6h-5.2c-0.2,0-0.3-0.1-0.3-0.3c0-0.2,0.1-0.3,0.3-0.3h5.2c0.2,0,0.3,0.1,0.3,0.3
				C30.4,29.4,30.3,29.6,30.1,29.6z"/>
			<path class="st1" d="M29.1,31.1h-3.3c-0.2,0-0.3-0.1-0.3-0.3c0-0.2,0.1-0.3,0.3-0.3h3.3c0.2,0,0.3,0.1,0.3,0.3
				C29.4,31,29.3,31.1,29.1,31.1z"/>
		</g>
		<g>
			<path class="st1" d="M27.4,13.8c-0.2,0-0.3-0.1-0.3-0.3V10c0-0.2,0.1-0.3,0.3-0.3c0.2,0,0.3,0.1,0.3,0.3v3.4
				C27.7,13.6,27.6,13.8,27.4,13.8z"/>
			<path class="st1" d="M21.8,15.7c-0.1,0-0.2,0-0.2-0.1l-2.4-2.4c-0.1-0.1-0.1-0.3,0-0.4c0.1-0.1,0.3-0.1,0.4,0l2.4,2.4
				c0.1,0.1,0.1,0.3,0,0.4C21.9,15.7,21.8,15.7,21.8,15.7z"/>
			<path class="st1" d="M33.3,15.7c-0.1,0-0.2,0-0.2-0.1c-0.1-0.1-0.1-0.3,0-0.4l2.4-2.4c0.1-0.1,0.3-0.1,0.4,0
				c0.1,0.1,0.1,0.3,0,0.4l-2.4,2.4C33.4,15.7,33.4,15.7,33.3,15.7z"/>
		</g>
	</g>
</g>
</svg>
