<?xml version="1.0" encoding="utf-8"?>
<!-- Generator: Adobe Illustrator 19.1.0, SVG Export Plug-In . SVG Version: 6.00 Build 0)  -->
<svg version="1.1" id="Layer_1" xmlns="http://www.w3.org/2000/svg" xmlns:xlink="http://www.w3.org/1999/xlink" x="0px" y="0px"
	 viewBox="0 0 256.4 256.4" style="enable-background:new 0 0 256.4 256.4;" xml:space="preserve">
<style type="text/css">
	.st0{clip-path:url(#SVGID_2_);fill:#316266;}
	.st1{fill:#316266;}
</style>
<g>
	<defs>
		<rect id="SVGID_1_" width="256.4" height="256.4"/>
	</defs>
	<clipPath id="SVGID_2_">
		<use xlink:href="#SVGID_1_"  style="overflow:visible;"/>
	</clipPath>
	<path class="st0" d="M4.4,128.2C4.4,60,60,4.4,128.2,4.4S251.9,60,251.9,128.2s-55.5,123.7-123.7,123.7S4.4,196.4,4.4,128.2
		 M0,128.2c0,70.7,57.5,128.2,128.2,128.2s128.2-57.5,128.2-128.2S198.9,0,128.2,0S0,57.5,0,128.2"/>
</g>
<polygon class="st1" points="186,112.9 129.5,56.4 127.7,56.4 71.2,112.9 74.9,116.6 128.6,62.9 175.7,110 171.8,104.9 171.8,181.5 
	146.5,181.5 146.5,135 112,135 112,181.5 86.7,181.5 86.7,103.4 81.5,108.5 81.5,186.7 117.2,186.7 117.2,140.2 141.3,140.2 
	141.3,186.7 177,186.7 177,111.3 182.3,116.6 "/>
</svg>
