<?xml version="1.0" encoding="utf-8"?>
<!-- Generator: Adobe Illustrator 19.1.0, SVG Export Plug-In . SVG Version: 6.00 Build 0)  -->
<svg version="1.1" id="Layer_1" xmlns="http://www.w3.org/2000/svg" xmlns:xlink="http://www.w3.org/1999/xlink" x="0px" y="0px"
	 viewBox="0 0 139.2 141.7" style="enable-background:new 0 0 139.2 141.7;" xml:space="preserve">
<style type="text/css">
	.st0{fill:#2D6164;}
	.st1{fill:#FFFFFF;}
</style>
<g>
	<path class="st0" d="M139.2,69.6c0,38.4-31.2,69.6-69.6,69.6C31.2,139.2,0,108.1,0,69.6C0,31.2,31.2,0,69.6,0
		C108.1,0,139.2,31.2,139.2,69.6L139.2,69.6z"/>
	<path class="st1" d="M45.3,88.2l-4.6,4.6l1.7,6.3l6.3,1.7l4.6-4.6l-1.7-6.3L45.3,88.2L45.3,88.2z M47.9,97.7l-3.1-0.8l-0.8-3.1
		l2.3-2.3l3.1,0.8l0.8,3.1L47.9,97.7L47.9,97.7z"/>
	<path class="st1" d="M85.8,64.3c1.3,0.4,2.7,0.7,4.1,0.7c3.6,0,7-1.4,9.5-3.9c3-3,4.4-7.1,3.8-11.4l-0.4-2.9l-6.7,6.7l-5.9-2.2
		L88,45.4l6.7-6.7l-2.9-0.4c-4.2-0.6-8.4,0.8-11.4,3.8c-3.6,3.6-4.8,8.8-3.3,13.6L49.5,83.5c-0.8-0.2-1.6-0.3-2.4-0.3
		c-3,0-5.9,1.2-8.1,3.3c-2.2,2.2-3.3,5-3.3,8.1c0,3,1.2,5.9,3.3,8.1c2.1,2.2,5,3.3,8.1,3.3c3,0,5.9-1.2,8.1-3.3
		c2.8-2.8,3.9-6.8,3-10.6L85.8,64.3L85.8,64.3z M53.1,100.6c-1.6,1.6-3.7,2.5-6,2.5c-2.3,0-4.4-0.9-6-2.5c-1.6-1.6-2.5-3.7-2.5-6
		c0-2.3,0.9-4.4,2.5-6c1.6-1.6,3.7-2.5,6-2.5c0.8,0,1.7,0.1,2.5,0.4l0.8,0.2l30.3-30.3l-0.4-0.9c-1.6-3.9-0.7-8.4,2.3-11.4
		c1.5-1.5,3.5-2.5,5.6-2.9l-3.5,3.5l3.3,8.9l8.9,3.4l3.5-3.5c-0.4,2.1-1.4,4-2.9,5.6c-2,2-4.6,3.1-7.4,3.1c-1.4,0-2.7-0.3-4-0.8
		L85.1,61L54.9,91.2l0.3,0.8C56.1,95.1,55.3,98.4,53.1,100.6"/>
	<polygon class="st1" points="78.9,74.7 72.2,81.4 74,83.3 80.8,76.5 78.9,74.7 	"/>
	<path class="st1" d="M102.2,97.6L82.6,77.9l-7.2,7.2l19.7,19.7c0.9,0.9,2,1.3,3.1,1.3c1,0,1.9-0.4,2.5-1l1.9-1.9
		C104,101.7,103.9,99.2,102.2,97.6 M100.5,101.2l-1.9,1.9c-0.1,0.1-0.3,0.2-0.5,0.2c-0.4,0-0.8-0.2-1.1-0.5L79.5,85.1l3.1-3.1
		l17.6,17.6C100.8,100.2,100.8,100.9,100.5,101.2"/>
	<polygon class="st1" points="45,49.4 65.3,69.6 67.3,67.6 47,47.3 48.1,46.3 43.5,41.8 42.5,42.8 40.5,44.8 39.4,45.9 44,50.4 
		45,49.4 	"/>
</g>
</svg>
