<?xml version="1.0" encoding="utf-8"?>
<!-- Generator: Adobe Illustrator 19.1.0, SVG Export Plug-In . SVG Version: 6.00 Build 0)  -->
<svg version="1.1" id="Layer_1" xmlns="http://www.w3.org/2000/svg" xmlns:xlink="http://www.w3.org/1999/xlink" x="0px" y="0px"
	 viewBox="0 0 99.7 99.7" style="enable-background:new 0 0 99.7 99.7;" xml:space="preserve">
<style type="text/css">
	.st0{clip-path:url(#SVGID_2_);fill:#566BB3;}
	.st1{clip-path:url(#SVGID_2_);fill:#FFFFFF;}
</style>
<g>
	<defs>
		<rect id="SVGID_1_" x="0" width="99.7" height="99.7"/>
	</defs>
	<clipPath id="SVGID_2_">
		<use xlink:href="#SVGID_1_"  style="overflow:visible;"/>
	</clipPath>
	<path class="st0" d="M49.8,99.7c27.5,0,49.8-22.3,49.8-49.8S77.4,0,49.8,0S0,22.3,0,49.8S22.3,99.7,49.8,99.7"/>
	<path class="st1" d="M49.1,35.4c-8,0-14.5,6.5-14.5,14.5s6.5,14.5,14.5,14.5s14.5-6.5,14.5-14.5S57,35.4,49.1,35.4 M49.1,65.9
		c-8.8,0-16-7.2-16-16s7.2-16,16-16s16,7.2,16,16S57.9,65.9,49.1,65.9 M20.4,49.8l0.4,0.6c0.5,0.7,12.7,18.3,28.2,18.3
		c15.5,0,27.7-17.6,28.2-18.3l0.4-0.6l-0.4-0.6c-0.5-0.8-12.7-18.3-28.2-18.3c-15.5,0-27.7,17.6-28.2,18.3L20.4,49.8z M49.1,70.3
		c-16.3,0-29-18.2-29.5-19l-0.7-1.1c-0.2-0.3-0.2-0.6,0-0.9l0.7-1.1c0.5-0.8,13.2-19,29.5-19c16.3,0,29,18.2,29.5,19l0.7,1.1
		c0.2,0.3,0.2,0.6,0,0.9l-0.7,1.1C78,52.1,65.4,70.3,49.1,70.3"/>
	<path class="st1" d="M49.1,44.1c-3.1,0-5.7,2.6-5.7,5.7c0,3.1,2.6,5.7,5.7,5.7c3.1,0,5.7-2.6,5.7-5.7
		C54.8,46.7,52.2,44.1,49.1,44.1 M49.1,57.1c-4,0-7.2-3.3-7.2-7.2s3.3-7.2,7.2-7.2s7.2,3.3,7.2,7.2S53.1,57.1,49.1,57.1"/>
</g>
</svg>
