<?xml version="1.0" encoding="utf-8"?>
<!-- Generator: Adobe Illustrator 19.1.0, SVG Export Plug-In . SVG Version: 6.00 Build 0)  -->
<svg version="1.1" id="Layer_1" xmlns="http://www.w3.org/2000/svg" xmlns:xlink="http://www.w3.org/1999/xlink" x="0px" y="0px"
	 viewBox="0 0 65 65" style="enable-background:new 0 0 65 65;" xml:space="preserve">
<style type="text/css">
	.st0{clip-path:url(#SVGID_2_);fill:#566BB3;}
</style>
<g>
	<defs>
		<rect id="SVGID_1_" width="65" height="65"/>
	</defs>
	<clipPath id="SVGID_2_">
		<use xlink:href="#SVGID_1_"  style="overflow:visible;"/>
	</clipPath>
	<path class="st0" d="M1.1,32.5c0-17.3,14.1-31.4,31.4-31.4s31.4,14.1,31.4,31.4S49.8,63.9,32.5,63.9S1.1,49.8,1.1,32.5 M0,32.5
		C0,50.4,14.6,65,32.5,65S65,50.4,65,32.5C65,14.6,50.4,0,32.5,0S0,14.6,0,32.5"/>
	<path class="st0" d="M32.5,23.1c-5.2,0-9.4,4.2-9.4,9.4c0,5.2,4.2,9.4,9.4,9.4s9.4-4.2,9.4-9.4C41.9,27.3,37.7,23.1,32.5,23.1
		 M32.5,43C26.7,43,22,38.3,22,32.5S26.7,22,32.5,22S43,26.7,43,32.5S38.3,43,32.5,43 M13.8,32.5l0.3,0.4c0.3,0.5,8.3,12,18.4,12
		c10.1,0,18.1-11.5,18.4-12l0.3-0.4l-0.3-0.4c-0.3-0.5-8.3-12-18.4-12c-10.1,0-18.1,11.5-18.4,12L13.8,32.5z M32.5,45.9
		c-10.6,0-18.9-11.9-19.2-12.4l-0.5-0.7c-0.1-0.2-0.1-0.4,0-0.6l0.5-0.7c0.3-0.5,8.6-12.4,19.2-12.4c10.6,0,18.9,11.9,19.2,12.4
		l0.5,0.7c0.1,0.2,0.1,0.4,0,0.6l-0.5,0.7C51.4,34,43.1,45.9,32.5,45.9"/>
	<path class="st0" d="M32.5,28.8c-2,0-3.7,1.7-3.7,3.7s1.7,3.7,3.7,3.7c2,0,3.7-1.7,3.7-3.7S34.5,28.8,32.5,28.8 M32.5,37.2
		c-2.6,0-4.7-2.1-4.7-4.7c0-2.6,2.1-4.7,4.7-4.7s4.7,2.1,4.7,4.7C37.2,35.1,35.1,37.2,32.5,37.2"/>
</g>
</svg>
