<?xml version="1.0" encoding="utf-8"?>
<!-- Generator: Adobe Illustrator 19.1.0, SVG Export Plug-In . SVG Version: 6.00 Build 0)  -->
<svg version="1.1" id="Layer_1" xmlns="http://www.w3.org/2000/svg" xmlns:xlink="http://www.w3.org/1999/xlink" x="0px" y="0px"
	 viewBox="0 0 124.7 124.7" style="enable-background:new 0 0 124.7 124.7;" xml:space="preserve">
<style type="text/css">
	.st0{clip-path:url(#SVGID_2_);fill:#566BB3;}
	.st1{fill:#FFFFFF;}
	.st2{clip-path:url(#SVGID_4_);fill:#566BB3;}
</style>
<g>
	<defs>
		<rect id="SVGID_1_" x="0" width="124.7" height="124.7"/>
	</defs>
	<clipPath id="SVGID_2_">
		<use xlink:href="#SVGID_1_"  style="overflow:visible;"/>
	</clipPath>
	<path class="st0" d="M62.3,124.7c34.4,0,62.3-27.9,62.3-62.3S96.8,0,62.3,0S0,27.9,0,62.3S27.9,124.7,62.3,124.7"/>
</g>
<path class="st1" d="M88.2,48l-42,42L33.9,77.6l8.7-8.7l6.9,6.9l1.8-1.8l-6.9-6.9l9.5-9.5l6.9,6.9l1.8-1.8l-6.9-6.9l9.5-9.5l6.9,6.9
	l1.8-1.8l-6.9-6.9l9-9L88.2,48z M91.5,47.6L76.2,32.3L30.5,78l15.3,15.3L91.5,47.6z"/>
<g>
	<defs>
		<rect id="SVGID_3_" x="0" y="1038.9" width="41.1" height="41.1"/>
	</defs>
	<clipPath id="SVGID_4_">
		<use xlink:href="#SVGID_3_"  style="overflow:visible;"/>
	</clipPath>
	<path class="st2" d="M20.6,1080c11.4,0,20.6-9.2,20.6-20.6s-9.2-20.6-20.6-20.6S0,1048.1,0,1059.4S9.2,1080,20.6,1080"/>
</g>
<path class="st1" d="M29.1,1054.7l-13.8,13.8l-4.1-4.1l2.9-2.9l2.3,2.3l0.6-0.6l-2.3-2.3l3.1-3.1l2.3,2.3l0.6-0.6l-2.3-2.3l3.1-3.1
	l2.3,2.3l0.6-0.6l-2.3-2.3l3-3L29.1,1054.7z M30.2,1054.6l-5-5l-15.1,15.1l5,5L30.2,1054.6z"/>
</svg>
