<?xml version="1.0" encoding="utf-8"?>
<!-- Generator: Adobe Illustrator 19.1.0, SVG Export Plug-In . SVG Version: 6.00 Build 0)  -->
<svg version="1.1" id="Layer_1" xmlns="http://www.w3.org/2000/svg" xmlns:xlink="http://www.w3.org/1999/xlink" x="0px" y="0px"
	 viewBox="0 0 105 105" style="enable-background:new 0 0 105 105;" xml:space="preserve">
<style type="text/css">
	.st0{clip-path:url(#SVGID_2_);fill:#566BB3;}
	.st1{clip-path:url(#SVGID_2_);fill:#FFFFFF;}
</style>
<g>
	<defs>
		<rect id="SVGID_1_" width="105" height="105"/>
	</defs>
	<clipPath id="SVGID_2_">
		<use xlink:href="#SVGID_1_"  style="overflow:visible;"/>
	</clipPath>
	<path class="st0" d="M52.5,105c29,0,52.5-23.5,52.5-52.5S81.5,0,52.5,0S0,23.5,0,52.5S23.5,105,52.5,105"/>
	<path class="st1" d="M51.7,42.9c-4.5,0-8.2,3.7-8.2,8.2c0,4.5,3.7,8.2,8.2,8.2s8.2-3.7,8.2-8.2C59.9,46.6,56.2,42.9,51.7,42.9
		 M51.7,61.2c-5.6,0-10.2-4.6-10.2-10.2c0-5.6,4.6-10.2,10.2-10.2s10.2,4.6,10.2,10.2C61.9,56.7,57.3,61.2,51.7,61.2 M49.3,73.9h4.8
		l0.9-4.5l0.6-0.1c2.2-0.5,4.2-1.3,6.1-2.5l0.5-0.4l3.9,2.5l3.4-3.4L67,61.7l0.4-0.5c1.2-1.9,2.1-3.9,2.5-6.1l0.1-0.6l4.5-0.9v-4.8
		L70,47.7l-0.1-0.6c-0.5-2.2-1.3-4.2-2.5-6.1L67,40.4l2.5-3.9l-3.4-3.4l-3.9,2.5l-0.5-0.4c-1.9-1.2-3.9-2.1-6.1-2.5L55,32.7
		l-0.9-4.5h-4.8l-0.9,4.5l-0.6,0.1c-2.2,0.5-4.2,1.3-6.1,2.5l-0.5,0.4l-3.9-2.5l-3.4,3.4l2.5,3.9L36,41c-1.2,1.9-2.1,3.9-2.5,6.1
		l-0.1,0.6l-4.5,0.9v4.8l4.5,0.9l0.1,0.6c0.5,2.2,1.3,4.2,2.5,6.1l0.4,0.5l-2.5,3.9l3.4,3.4l3.9-2.5l0.5,0.4
		c1.9,1.2,3.9,2.1,6.1,2.5l0.6,0.1L49.3,73.9z M55.7,75.9h-8.1l-1-4.8c-2-0.5-3.8-1.3-5.6-2.3L37,71.5l-5.7-5.7l2.7-4.1
		c-1-1.7-1.8-3.6-2.3-5.6l-4.8-1V47l4.8-1c0.5-2,1.3-3.8,2.3-5.6l-2.7-4.1l5.7-5.7l4.1,2.7c1.7-1,3.6-1.8,5.6-2.3l1-4.8h8.1l1,4.8
		c2,0.5,3.8,1.3,5.6,2.3l4.1-2.7l5.7,5.7l-2.7,4.1c1,1.7,1.8,3.6,2.3,5.6l4.8,1v8.1l-4.8,1c-0.5,2-1.3,3.8-2.3,5.6l2.7,4.1l-5.7,5.7
		l-4.1-2.7c-1.7,1.1-3.6,1.8-5.6,2.3L55.7,75.9z"/>
</g>
</svg>
