<?xml version="1.0" encoding="utf-8"?>
<!-- Generator: Adobe Illustrator 19.1.0, SVG Export Plug-In . SVG Version: 6.00 Build 0)  -->
<svg version="1.1" id="Layer_1" xmlns="http://www.w3.org/2000/svg" xmlns:xlink="http://www.w3.org/1999/xlink" x="0px" y="0px"
	 viewBox="0 0 65 65" style="enable-background:new 0 0 65 65;" xml:space="preserve">
<style type="text/css">
	.st0{clip-path:url(#SVGID_2_);fill:#566BB3;}
</style>
<g>
	<defs>
		<rect id="SVGID_1_" width="65" height="65"/>
	</defs>
	<clipPath id="SVGID_2_">
		<use xlink:href="#SVGID_1_"  style="overflow:visible;"/>
	</clipPath>
	<path class="st0" d="M1.1,32.5c0-17.3,14.1-31.4,31.4-31.4s31.4,14.1,31.4,31.4S49.8,63.9,32.5,63.9S1.1,49.8,1.1,32.5 M0,32.5
		C0,50.4,14.6,65,32.5,65S65,50.4,65,32.5C65,14.6,50.4,0,32.5,0S0,14.6,0,32.5"/>
	<path class="st0" d="M32.5,27.4c-2.8,0-5.1,2.3-5.1,5.1s2.3,5.1,5.1,5.1s5.1-2.3,5.1-5.1S35.3,27.4,32.5,27.4 M32.5,38.8
		c-3.5,0-6.3-2.8-6.3-6.3c0-3.5,2.8-6.3,6.3-6.3c3.5,0,6.3,2.8,6.3,6.3C38.8,36,36,38.8,32.5,38.8 M31,46.6h3l0.6-2.8l0.4-0.1
		c1.3-0.3,2.6-0.8,3.8-1.6l0.3-0.2l2.4,1.6l2.1-2.1L42,39.1l0.2-0.3c0.8-1.2,1.3-2.4,1.6-3.8l0.1-0.4l2.8-0.6v-3l-2.8-0.6L43.8,30
		c-0.3-1.3-0.8-2.6-1.6-3.8L42,25.9l1.6-2.4l-2.1-2.1L39.1,23l-0.3-0.2c-1.2-0.8-2.4-1.3-3.8-1.6l-0.4-0.1L34,18.4h-3l-0.6,2.8
		L30,21.2c-1.3,0.3-2.6,0.8-3.8,1.6L25.9,23l-2.4-1.6l-2.1,2.1l1.6,2.4l-0.2,0.3c-0.8,1.2-1.3,2.4-1.6,3.8l-0.1,0.4L18.4,31v3
		l2.8,0.6l0.1,0.4c0.3,1.3,0.8,2.6,1.6,3.8l0.2,0.3l-1.6,2.4l2.1,2.1l2.4-1.6l0.3,0.2c1.2,0.8,2.4,1.3,3.8,1.6l0.4,0.1L31,46.6z
		 M35,47.9h-5l-0.6-3c-1.2-0.3-2.4-0.8-3.4-1.4l-2.6,1.7l-3.5-3.5l1.7-2.6c-0.6-1.1-1.1-2.2-1.4-3.4l-3-0.6v-5l3-0.6
		c0.3-1.2,0.8-2.4,1.4-3.4l-1.7-2.6l3.5-3.5l2.6,1.7c1.1-0.6,2.2-1.1,3.4-1.4l0.6-3h5l0.6,3c1.2,0.3,2.4,0.8,3.4,1.4l2.6-1.7
		l3.5,3.5l-1.7,2.6c0.6,1.1,1.1,2.2,1.4,3.4l3,0.6v5l-3,0.6c-0.3,1.2-0.8,2.4-1.4,3.4l1.7,2.6l-3.5,3.5l-2.6-1.7
		c-1.1,0.6-2.2,1.1-3.4,1.4L35,47.9z"/>
</g>
</svg>
