<?xml version="1.0" encoding="utf-8"?>
<!-- Generator: Adobe Illustrator 19.1.0, SVG Export Plug-In . SVG Version: 6.00 Build 0)  -->
<svg version="1.1" id="Layer_1" xmlns="http://www.w3.org/2000/svg" xmlns:xlink="http://www.w3.org/1999/xlink" x="0px" y="0px"
	 viewBox="0 0 134.3 134.3" style="enable-background:new 0 0 134.3 134.3;" xml:space="preserve">
<style type="text/css">
	.st0{clip-path:url(#SVGID_2_);fill:#566BB3;}
</style>
<g>
	<defs>
		<rect id="SVGID_1_" width="134.3" height="134.3"/>
	</defs>
	<clipPath id="SVGID_2_">
		<use xlink:href="#SVGID_1_"  style="overflow:visible;"/>
	</clipPath>
	<path class="st0" d="M2.3,67.1c0-35.7,29.1-64.8,64.8-64.8S132,31.4,132,67.1S102.9,132,67.1,132S2.3,102.9,2.3,67.1 M0,67.1
		c0,37,30.1,67.1,67.1,67.1s67.1-30.1,67.1-67.1S104.2,0,67.1,0S0,30.1,0,67.1"/>
	<path class="st0" d="M55.7,71.2c-0.7,0-1.2-0.6-1.2-1.2V25.4c0-0.6,0.4-1.1,1-1.2c0.6-0.1,1.2,0.2,1.4,0.7
		c1.7,3.8,4.3,7.2,6.6,10.2c3.1,4.1,5.8,7.6,5.4,11c-0.2,1.7-1.2,3.2-3.1,4.6c-0.6,0.4-1.3,0.3-1.7-0.3c-0.4-0.6-0.3-1.3,0.3-1.7
		c1.3-0.9,1.9-1.9,2.1-2.9c0.3-2.4-2.1-5.5-4.9-9.1c-1.5-1.9-3.1-4-4.5-6.3V70C56.9,70.6,56.3,71.2,55.7,71.2"/>
	<path class="st0" d="M48.9,66.2c-0.9,0-1.8,0.1-2.7,0.4c-1.8,0.6-3.4,1.6-4.4,2.9c-0.9,1.2-1.2,2.6-0.8,3.7
		c0.6,1.9,2.7,3.1,5.3,3.1c0.9,0,1.8-0.1,2.7-0.4c3.7-1.1,6-4.1,5.2-6.7C53.7,67.4,51.6,66.2,48.9,66.2 M46.4,78.8L46.4,78.8
		c-3.8,0-6.8-1.9-7.7-4.8c-0.6-1.9-0.2-4.1,1.2-5.9c1.3-1.8,3.3-3.1,5.6-3.8c1.1-0.3,2.3-0.5,3.4-0.5c3.8,0,6.8,1.9,7.7,4.8
		c1.2,3.9-1.9,8.3-6.9,9.8C48.7,78.6,47.5,78.8,46.4,78.8"/>
	<path class="st0" d="M81.7,98.7c-0.7,0-1.2-0.6-1.2-1.2V52.9c0-0.6,0.4-1.1,1-1.2c0.6-0.1,1.2,0.2,1.4,0.7
		c1.7,3.8,4.3,7.2,6.6,10.2c3.1,4.1,5.8,7.6,5.4,11c-0.2,1.7-1.2,3.2-3.1,4.6c-0.6,0.4-1.3,0.3-1.7-0.3c-0.4-0.6-0.3-1.3,0.3-1.7
		c1.3-0.9,1.9-1.9,2.1-2.9c0.3-2.4-2.1-5.5-4.9-9.1c-1.5-1.9-3.1-4-4.5-6.3v39.6C83,98.1,82.4,98.7,81.7,98.7"/>
	<path class="st0" d="M75,93.7c-0.9,0-1.8,0.1-2.7,0.4c-1.8,0.6-3.4,1.6-4.4,2.9c-0.9,1.2-1.2,2.6-0.8,3.7c0.6,1.9,2.7,3.1,5.3,3.1
		c0.9,0,1.8-0.1,2.7-0.4c3.7-1.1,6-4.1,5.2-6.7C79.8,94.9,77.7,93.7,75,93.7 M72.4,106.3L72.4,106.3c-3.8,0-6.8-1.9-7.7-4.8
		c-0.6-1.9-0.2-4.1,1.2-5.9c1.3-1.8,3.3-3.1,5.6-3.8c1.1-0.3,2.3-0.5,3.4-0.5c3.8,0,6.8,1.9,7.7,4.8c1.2,3.9-1.9,8.3-6.9,9.8
		C74.7,106.1,73.6,106.3,72.4,106.3"/>
</g>
</svg>
