<?xml version="1.0" encoding="utf-8"?>
<!-- Generator: Adobe Illustrator 21.1.0, SVG Export Plug-In . SVG Version: 6.00 Build 0)  -->
<svg version="1.1" id="Layer_1" xmlns="http://www.w3.org/2000/svg" xmlns:xlink="http://www.w3.org/1999/xlink" x="0px" y="0px"
	 viewBox="0 0 319.6 319.6" style="enable-background:new 0 0 319.6 319.6;" xml:space="preserve">
<style type="text/css">
	.st0{fill:#326266;}
	.st1{fill:#FFFFFF;}
</style>
<g>
	<path class="st0" d="M159.8,319.6c88.3,0,159.8-71.6,159.8-159.8S248,0,159.8,0S0,71.6,0,159.8S71.6,319.6,159.8,319.6"/>
</g>
<g>
	<path class="st1" d="M236.6,231.1l-7.5,7.5c-0.6,0.6-1.5,0.6-2,0l-47.8-47.7c-0.2-0.2-0.2-0.6,0-0.9l8.7-8.7c0.2-0.2,0.6-0.2,0.8,0
		l47.8,47.8C237.2,229.7,237.2,230.6,236.6,231.1 M173.1,175.1c-21,21-55.2,21-76.2,0c-21-21-21-55.2,0-76.2s55.2-21,76.2,0
		C194.1,120,194.1,154.1,173.1,175.1 M239.5,226.2l-47.8-47.8c-1.8-1.8-4.8-1.8-6.6,0l-1.7,1.7l-4.7-4.7
		c20.1-22.8,19.2-57.7-2.5-79.5c-22.7-22.7-59.6-22.7-82.2,0c-22.7,22.7-22.7,59.6,0,82.2c21.8,21.8,56.7,22.6,79.5,2.5l4.7,4.7
		l-1.7,1.7c-1.8,1.8-1.8,4.8,0,6.6l47.8,47.8c2.2,2.2,5.7,2.2,7.8,0l7.5-7.5C241.7,231.9,241.7,228.4,239.5,226.2"/>
</g>
<g>
	<path class="st1" d="M228.1,243.9c-1.6,0-3.2-0.6-4.5-1.8l-47.8-47.8c-1-1-1.6-2.4-1.6-3.9s0.6-2.8,1.6-3.9l1.2-1.2l-3.7-3.6
		c-23.3,20-58.3,18.7-80-3c-23-23-23-60.4,0-83.3c23-23,60.4-23,83.3,0c21.8,21.8,23,56.8,3.1,80l3.6,3.7l1.2-1.2
		c1-1,2.4-1.6,3.9-1.6s2.8,0.6,3.9,1.6l47.8,47.8c2.5,2.5,2.5,6.5,0,8.9l-7.5,7.5C231.4,243.3,229.8,243.9,228.1,243.9z
		 M173.5,179.6l5.8,5.8l-2.3,2.3c-0.7,0.7-1.1,1.7-1.1,2.8c0,1,0.4,2,1.1,2.8l47.8,47.8c1.8,1.9,4.9,1.8,6.7,0l7.5-7.5
		c1.8-1.9,1.9-4.9,0-6.7l-47.8-47.8c-1.5-1.5-4.1-1.5-5.5,0l-2.3,2.3l-5.8-5.8l0.5-0.5c19.9-22.6,18.8-57.1-2.5-78.5
		c-22.4-22.4-58.8-22.4-81.1,0c-22.4,22.4-22.4,58.8,0,81.1c21.4,21.3,55.8,22.4,78.5,2.5L173.5,179.6z M228.1,239.8L228.1,239.8
		c-0.6,0-1.1-0.2-1.6-0.7l-47.8-47.7c-0.5-0.5-0.5-1.4,0-1.9l8.7-8.7c0.5-0.5,1.4-0.5,1.9,0l47.8,47.8c0.4,0.4,0.6,1,0.6,1.6
		s-0.2,1.1-0.6,1.6l-7.5,7.5C229.3,239.6,228.7,239.8,228.1,239.8z M180,190.5l47.6,47.6c0.1,0.1,0.3,0.2,0.5,0.2l0,0
		c0.2,0,0.3-0.1,0.5-0.2l7.5-7.5c0.1-0.1,0.2-0.3,0.2-0.5s-0.1-0.3-0.2-0.5L188.5,182L180,190.5z M135.1,191.7c-14,0-28-5.3-38.6-16
		c-10.3-10.3-16-24-16-38.6s5.7-28.3,16-38.6c10.3-10.3,24-16,38.6-16s28.3,5.7,38.6,16c10.3,10.3,16,24,16,38.6s-5.7,28.3-16,38.6
		l0,0C163,186.3,149.1,191.7,135.1,191.7z M135.1,84c-14.2,0-27.5,5.5-37.5,15.5S82.1,122.8,82.1,137s5.5,27.5,15.5,37.5
		c20.7,20.7,54.4,20.7,75.1,0c10-10,15.5-23.3,15.5-37.5s-5.5-27.5-15.5-37.5C162.6,89.5,149.3,84,135.1,84z"/>
</g>
<g>
	<path class="st1" d="M107.8,109.2c0.8-0.8,0.8-2.2,0-3s-2.2-0.8-3,0c-17,17-17,44.7,0,61.7c0.8,0.8,2.2,0.8,3,0s0.8-2.2,0-3
		C92.5,149.5,92.5,124.6,107.8,109.2"/>
</g>
<g>
	<path class="st1" d="M106.3,169.3c-0.7,0-1.5-0.3-2.1-0.8c-17.3-17.3-17.3-45.5,0-62.8c1.1-1.1,3-1.1,4.1,0
		c0.6,0.6,0.9,1.3,0.9,2.1s-0.3,1.5-0.9,2.1c-15,15-15,39.5,0,54.5c0.6,0.6,0.9,1.3,0.9,2.1s-0.3,1.5-0.9,2.1
		C107.8,169,107,169.3,106.3,169.3z M106.3,106.4c-0.4,0-0.7,0.1-1,0.4c-16.7,16.7-16.7,43.9,0,60.6c0.5,0.5,1.4,0.5,1.9,0
		c0.3-0.3,0.4-0.6,0.4-1s-0.1-0.7-0.4-1c-7.6-7.6-11.7-17.6-11.7-28.4c0-10.7,4.2-20.8,11.7-28.4c0.3-0.3,0.4-0.6,0.4-1
		s-0.1-0.7-0.4-1C107,106.5,106.6,106.4,106.3,106.4z"/>
</g>
</svg>
