<?xml version="1.0" encoding="utf-8"?>
<!-- Generator: Adobe Illustrator 21.1.0, SVG Export Plug-In . SVG Version: 6.00 Build 0)  -->
<svg version="1.1" id="Layer_1" xmlns="http://www.w3.org/2000/svg" xmlns:xlink="http://www.w3.org/1999/xlink" x="0px" y="0px"
	 viewBox="0 0 323.5 323.5" style="enable-background:new 0 0 323.5 323.5;" xml:space="preserve">
<style type="text/css">
	.st0{fill:none;stroke:#326266;stroke-width:3.8871;}
	.st1{fill:#326266;}
	.st2{fill:none;stroke:#306267;stroke-width:1.5548;}
</style>
<circle class="st0" cx="161.7" cy="161.7" r="159.8"/>
<path class="st1" d="M233,238.5l-7.5,7.5c-0.6,0.6-1.5,0.6-2,0l-47.8-47.7c-0.2-0.2-0.2-0.6,0-0.9l8.7-8.7c0.2-0.2,0.6-0.2,0.8,0
	l47.8,47.8C233.5,237.1,233.5,238,233,238.5 M169.5,182.5c-21,21-55.2,21-76.2,0s-21-55.2,0-76.2s55.2-21,76.2,0
	C190.5,127.4,190.5,161.5,169.5,182.5 M235.9,233.6l-47.8-47.8c-1.8-1.8-4.8-1.8-6.6,0l-1.7,1.7l-4.7-4.7
	c20.1-22.8,19.2-57.7-2.5-79.5c-22.7-22.7-59.6-22.7-82.2,0c-22.7,22.7-22.7,59.6,0,82.2c21.8,21.8,56.7,22.6,79.5,2.5l4.7,4.7
	l-1.7,1.7c-1.8,1.8-1.8,4.8,0,6.6l47.8,47.8c2.2,2.2,5.7,2.2,7.8,0l7.5-7.5C238,239.3,238,235.8,235.9,233.6"/>
<path class="st2" d="M233,238.5l-7.5,7.5c-0.6,0.6-1.5,0.6-2,0l-47.8-47.7c-0.2-0.2-0.2-0.6,0-0.9l8.7-8.7c0.2-0.2,0.6-0.2,0.8,0
	l47.8,47.8C233.5,237.1,233.5,238,233,238.5z M169.5,182.5c-21,21-55.2,21-76.2,0s-21-55.2,0-76.2s55.2-21,76.2,0
	C190.5,127.4,190.5,161.5,169.5,182.5z M235.9,233.6l-47.8-47.8c-1.8-1.8-4.8-1.8-6.6,0l-1.7,1.7l-4.7-4.7
	c20.1-22.8,19.2-57.7-2.5-79.5c-22.7-22.7-59.6-22.7-82.2,0c-22.7,22.7-22.7,59.6,0,82.2c21.8,21.8,56.7,22.6,79.5,2.5l4.7,4.7
	l-1.7,1.7c-1.8,1.8-1.8,4.8,0,6.6l47.8,47.8c2.2,2.2,5.7,2.2,7.8,0l7.5-7.5C238,239.3,238,235.8,235.9,233.6z"/>
<path class="st1" d="M104.1,116.7c0.8-0.8,0.8-2.2,0-3s-2.2-0.8-3,0c-17,17-17,44.7,0,61.7c0.8,0.8,2.2,0.8,3,0s0.8-2.2,0-3
	C88.8,156.9,88.8,132,104.1,116.7"/>
<path class="st2" d="M104.1,116.7c0.8-0.8,0.8-2.2,0-3s-2.2-0.8-3,0c-17,17-17,44.7,0,61.7c0.8,0.8,2.2,0.8,3,0s0.8-2.2,0-3
	C88.8,156.9,88.8,132,104.1,116.7z"/>
</svg>
