<?xml version="1.0" encoding="utf-8"?>
<!-- Generator: Adobe Illustrator 19.1.0, SVG Export Plug-In . SVG Version: 6.00 Build 0)  -->
<svg version="1.1" id="Layer_1" xmlns="http://www.w3.org/2000/svg" xmlns:xlink="http://www.w3.org/1999/xlink" x="0px" y="0px"
	 viewBox="0 0 65 65" style="enable-background:new 0 0 65 65;" xml:space="preserve">
<style type="text/css">
	.st0{clip-path:url(#SVGID_2_);fill:#566BB3;}
</style>
<g>
	<defs>
		<rect id="SVGID_1_" width="65" height="65"/>
	</defs>
	<clipPath id="SVGID_2_">
		<use xlink:href="#SVGID_1_"  style="overflow:visible;"/>
	</clipPath>
	<path class="st0" d="M1.1,32.5c0-17.3,14.1-31.4,31.4-31.4s31.4,14.1,31.4,31.4S49.8,63.9,32.5,63.9S1.1,49.8,1.1,32.5 M0,32.5
		C0,50.4,14.6,65,32.5,65S65,50.4,65,32.5C65,14.6,50.4,0,32.5,0S0,14.6,0,32.5"/>
	<path class="st0" d="M22.1,28.6c0-1.2-0.8-1.8-1.8-1.8c-0.3,0-0.5,0.1-0.6,0.2c0-1.2,0.9-2.6,2.3-2.9v-1.4c-1.7,0.2-4,1.7-4,5.3
		c0,1.7,1,2.6,2.2,2.6C21.2,30.5,22.1,29.6,22.1,28.6 M27.2,28.6c0-1.2-0.8-1.8-1.8-1.8c-0.3,0-0.5,0.1-0.6,0.2
		c0-1.2,0.9-2.6,2.3-2.9v-1.4c-1.7,0.2-4,1.7-4,5.3c0,1.7,1,2.6,2.2,2.6C26.4,30.5,27.2,29.6,27.2,28.6"/>
	<path class="st0" d="M43.3,37.3c0,1.2,0.8,1.8,1.8,1.8c0.3,0,0.5-0.1,0.6-0.2c0,1.2-0.9,2.6-2.3,2.9v1.4c1.7-0.2,4-1.7,4-5.3
		c0-1.7-1-2.6-2.2-2.6C44.1,35.4,43.3,36.3,43.3,37.3 M38.1,37.3c0,1.2,0.8,1.8,1.8,1.8c0.3,0,0.5-0.1,0.6-0.2
		c0,1.2-0.9,2.6-2.3,2.9v1.4c1.7-0.2,4-1.7,4-5.3c0-1.7-1-2.6-2.2-2.6C38.9,35.4,38.1,36.3,38.1,37.3"/>
</g>
</svg>
