<?xml version="1.0" encoding="utf-8"?>
<!-- Generator: Adobe Illustrator 19.1.0, SVG Export Plug-In . SVG Version: 6.00 Build 0)  -->
<svg version="1.1" id="Layer_1" xmlns="http://www.w3.org/2000/svg" xmlns:xlink="http://www.w3.org/1999/xlink" x="0px" y="0px"
	 viewBox="0 0 123.6 123.6" style="enable-background:new 0 0 123.6 123.6;" xml:space="preserve">
<style type="text/css">
	.st0{clip-path:url(#SVGID_2_);fill:#566BB3;}
	.st1{clip-path:url(#SVGID_2_);fill:#FFFFFF;}
</style>
<g>
	<defs>
		<rect id="SVGID_1_" x="0" width="123.6" height="123.6"/>
	</defs>
	<clipPath id="SVGID_2_">
		<use xlink:href="#SVGID_1_"  style="overflow:visible;"/>
	</clipPath>
	<path class="st0" d="M61.8,123.6c34.1,0,61.8-27.7,61.8-61.8S95.9,0,61.8,0S0,27.7,0,61.8S27.7,123.6,61.8,123.6"/>
	<path class="st1" d="M41.6,54.5c0-2.2-1.5-3.5-3.4-3.5c-0.6,0-1,0.2-1.1,0.3c0.1-2.3,1.8-5,4.3-5.5v-2.7c-3.2,0.3-7.6,3.3-7.6,10
		c0,3.3,1.9,4.9,4.2,4.9C40,57.9,41.6,56.4,41.6,54.5 M51.4,54.5c0-2.2-1.5-3.5-3.4-3.5c-0.6,0-1,0.2-1.1,0.3c0.1-2.3,1.8-5,4.3-5.5
		v-2.7c-3.2,0.3-7.6,3.3-7.6,10c0,3.3,1.9,4.9,4.2,4.9C49.8,57.9,51.4,56.4,51.4,54.5"/>
	<path class="st1" d="M81.6,70.8c0,2.2,1.5,3.5,3.4,3.5c0.6,0,1-0.2,1.1-0.3c-0.1,2.3-1.8,5-4.3,5.5v2.7c3.2-0.3,7.6-3.3,7.6-10
		c0-3.3-1.9-4.9-4.2-4.9C83.2,67.3,81.6,68.9,81.6,70.8 M71.8,70.8c0,2.2,1.5,3.5,3.4,3.5c0.6,0,1-0.2,1.1-0.3
		c-0.1,2.3-1.8,5-4.3,5.5v2.7c3.2-0.3,7.6-3.3,7.6-10c0-3.3-1.9-4.9-4.2-4.9C73.4,67.3,71.8,68.9,71.8,70.8"/>
</g>
</svg>
