<?xml version="1.0" encoding="utf-8"?>
<!-- Generator: Adobe Illustrator 19.1.0, SVG Export Plug-In . SVG Version: 6.00 Build 0)  -->
<svg version="1.1" id="Layer_1" xmlns="http://www.w3.org/2000/svg" xmlns:xlink="http://www.w3.org/1999/xlink" x="0px" y="0px"
	 viewBox="0 0 97.9 97.9" style="enable-background:new 0 0 97.9 97.9;" xml:space="preserve">
<style type="text/css">
	.st0{clip-path:url(#SVGID_2_);fill:#566BB3;}
	.st1{clip-path:url(#SVGID_2_);fill:#FFFFFF;}
</style>
<g>
	<defs>
		<rect id="SVGID_1_" width="97.9" height="97.9"/>
	</defs>
	<clipPath id="SVGID_2_">
		<use xlink:href="#SVGID_1_"  style="overflow:visible;"/>
	</clipPath>
	<path class="st0" d="M48.9,97.9c27,0,48.9-21.9,48.9-48.9S76,0,48.9,0S0,21.9,0,48.9S21.9,97.9,48.9,97.9"/>
	<path class="st1" d="M69.1,66.9c-0.6,1.1-1.7,1.7-2.9,1.7H29.9c-1.2,0-2.3-0.6-2.9-1.7c-0.6-1.1-0.5-2.4,0.1-3.4L43.3,42V27.6h9.4
		V42L69,63.6C69.7,64.6,69.7,65.9,69.1,66.9 M70.1,62.9L54,41.6v-14h0.1c0.6,0,1.2-0.5,1.2-1.2c0-0.6-0.5-1.2-1.2-1.2H41.9
		c-0.6,0-1.2,0.5-1.2,1.2c0,0.6,0.5,1.2,1.2,1.2h0.1v14L26,62.9c-2,3.1,0.2,7.1,3.9,7.1h36.3C69.8,70,72,65.9,70.1,62.9"/>
</g>
</svg>
