<?xml version="1.0" encoding="utf-8"?>
<!-- Generator: Adobe Illustrator 19.1.0, SVG Export Plug-In . SVG Version: 6.00 Build 0)  -->
<svg version="1.1" id="Layer_1" xmlns="http://www.w3.org/2000/svg" xmlns:xlink="http://www.w3.org/1999/xlink" x="0px" y="0px"
	 viewBox="0 0 65 65" style="enable-background:new 0 0 65 65;" xml:space="preserve">
<style type="text/css">
	.st0{clip-path:url(#SVGID_2_);fill:#566BB3;}
</style>
<g>
	<defs>
		<rect id="SVGID_1_" width="65" height="65"/>
	</defs>
	<clipPath id="SVGID_2_">
		<use xlink:href="#SVGID_1_"  style="overflow:visible;"/>
	</clipPath>
	<path class="st0" d="M1.1,32.5c0-17.3,14.1-31.4,31.4-31.4s31.4,14.1,31.4,31.4S49.8,63.9,32.5,63.9S1.1,49.8,1.1,32.5 M0,32.5
		C0,50.4,14.6,65,32.5,65S65,50.4,65,32.5C65,14.6,50.4,0,32.5,0S0,14.6,0,32.5"/>
	<path class="st0" d="M46.3,44.8c-0.4,0.7-1.1,1.2-2,1.2H20c-0.8,0-1.6-0.4-2-1.2c-0.4-0.7-0.4-1.6,0.1-2.3L29,28.1v-9.6h6.3v9.6
		l10.9,14.4C46.6,43.2,46.6,44.1,46.3,44.8 M46.9,42.1L36.1,27.9v-9.4h0.1c0.4,0,0.8-0.4,0.8-0.8c0-0.4-0.4-0.8-0.8-0.8h-8.2
		c-0.4,0-0.8,0.4-0.8,0.8c0,0.4,0.4,0.8,0.8,0.8h0.1v9.4L17.4,42.1c-1.3,2,0.1,4.7,2.6,4.7h24.3C46.7,46.8,48.2,44.1,46.9,42.1"/>
</g>
</svg>
