<?xml version="1.0" encoding="utf-8"?>
<!-- Generator: Adobe Illustrator 19.1.0, SVG Export Plug-In . SVG Version: 6.00 Build 0)  -->
<svg version="1.1" id="Layer_1" xmlns="http://www.w3.org/2000/svg" xmlns:xlink="http://www.w3.org/1999/xlink" x="0px" y="0px"
	 viewBox="0 0 94.3 94.3" style="enable-background:new 0 0 94.3 94.3;" xml:space="preserve">
<style type="text/css">
	.st0{clip-path:url(#SVGID_2_);fill:#566BB3;}
	.st1{clip-path:url(#SVGID_2_);fill:#FFFFFF;}
</style>
<g>
	<defs>
		<rect id="SVGID_1_" width="94.3" height="94.3"/>
	</defs>
	<clipPath id="SVGID_2_">
		<use xlink:href="#SVGID_1_"  style="overflow:visible;"/>
	</clipPath>
	<path class="st0" d="M47.2,94.3c26,0,47.2-21.1,47.2-47.2S73.2,0,47.2,0S0,21.1,0,47.2S21.1,94.3,47.2,94.3"/>
	<path class="st1" d="M61.1,56.6c0-0.7,0.1-1.7,0.6-2.7c0.8-1.5,2.1-2.2,2.1-2.2c0.4-0.2,0.6-0.8,0.4-1.2c-0.2-0.4-0.8-0.6-1.2-0.4
		c-0.1,0-1.9,0.9-3,3c-0.6,1.2-0.8,2.4-0.8,3.3c0,0,0,0.1,0,0.1l-8.3,0c0.8-1.3,1.2-2.7,1.2-4.2c0-2.5-1.1-4.8-3-6.3
		c0.7-1.2,1.1-2.5,1.1-3.9c0-0.5,0-0.9-0.1-1.4c0.5-0.1,0.9-0.3,1.3-0.6c0.4-0.3,0.5-0.8,0.3-1.2c-0.3-0.4-0.8-0.5-1.2-0.3
		c-0.4,0.3-0.9,0.4-1.3,0.4c-1,0-1.9-0.6-2.3-1.6c-0.2-0.5-0.7-0.7-1.2-0.5c-0.4,0.1-0.6,0.5-0.6,0.8c0,0.1,0,0.2,0.1,0.3
		c0.5,1.4,1.7,2.4,3.1,2.7c0.1,0.4,0.2,0.9,0.2,1.3c0,1.1-0.3,2.1-0.8,3c-0.1-0.1-0.3-0.1-0.4-0.2c-0.5-0.2-1,0-1.2,0.5
		c0,0.1-0.1,0.2-0.1,0.4c0,0.4,0.2,0.7,0.6,0.8c2.3,1,3.9,3.3,3.9,5.8c0,1.6-0.6,3.1-1.6,4.2l-8.5,0c0-0.2,0-0.4,0-0.6
		c0-2,1.1-3.8,2.9-4.7c0.6-0.3,1.3-0.5,2-0.5c0.1,0,0.2,0,0.3,0c0.1,0,0.2,0,0.3,0c0.4-0.1,0.7-0.4,0.7-0.9c0-0.5-0.4-0.9-0.9-0.9
		c-0.1,0-0.3,0-0.4,0c-2-0.1-3.6-1.7-3.8-3.7c0-0.1,0-0.2,0-0.3c0,0,0,0,0-0.1c0-1.6,0.9-3.1,2.4-3.7c0.4-0.2,0.6-0.7,0.4-1.2
		c-0.2-0.5-0.7-0.6-1.2-0.4c-1.2,0.6-2.2,1.5-2.7,2.6c-0.9-1.1-2.3-1.8-3.8-1.8c-0.5,0-0.9,0.4-0.9,0.9c0,0.5,0.4,0.9,0.9,0.9
		c1.2,0,2.4,0.7,2.9,1.8c0.2,0.3,0.2,0.7,0.3,1c0,0.1,0,0.2,0,0.3c0,0,0,0,0,0c0,0,0,0.1,0,0.1c0.2,1.8,1.2,3.4,2.6,4.3
		c-2.3,1.2-3.8,3.6-3.8,6.3c0,0.2,0,0.4,0,0.6l-8,0c-3-0.6-5.2-3.1-5.2-6.1c0-2.9,2.1-5.4,5.1-6c0,0,0.1,0,0.1,0c0.1,0,0.2,0,0.4,0
		c1.3,0,2.5,0.7,3.2,1.7c-0.9,1-1.5,2.3-1.6,3.6c-0.4-0.2-0.9-0.2-1.3-0.2c-0.9,0-1.8,0.3-2.5,0.9c-0.2,0.2-0.3,0.4-0.3,0.7
		c0,0.2,0.1,0.4,0.2,0.6c0.3,0.4,0.9,0.4,1.3,0.1c0.4-0.3,0.9-0.5,1.4-0.5c0.5,0,1.1,0.2,1.5,0.6c0.2,0.8,0.5,1.6,1,2.2
		c0.3,0.4,0.9,0.5,1.3,0.2c0.4-0.3,0.5-0.9,0.2-1.3c-0.6-0.8-0.8-1.7-0.8-2.7c0-1.3,0.6-2.6,1.5-3.4c0,0,0,0,0,0
		c0.3-0.3,0.4-0.7,0.2-1.1c-0.9-1.9-2.7-3.1-4.7-3.3c0-3.6,3.2-6.6,7-6.6c0.9,0,1.8,0.2,2.6,0.5c0.3,0.1,0.7,0,1-0.2
		c1.3-1.4,3.1-2.2,5-2.2c3.1,0,5.8,2,6.5,4.8c0.1,0.3,0.2,0.5,0.5,0.6c0.2,0.1,0.5,0.1,0.8,0c0.9-0.4,1.9-0.6,2.8-0.6
		c3.4,0,6.3,2.4,6.8,5.5c-0.4-0.1-0.8-0.1-1.2-0.1c-1.6,0-3.2,0.5-4.4,1.4c-0.9-1.3-2.1-2.2-3.6-2.7c-0.5-0.1-1,0.1-1.1,0.6
		c0,0.1,0,0.2,0,0.3c0,0.4,0.2,0.7,0.6,0.9c1.2,0.4,2.2,1.2,2.8,2.2c-0.8,0.9-1.4,2.1-1.7,3.4c0,0.1,0,0.1,0,0.2
		c0,0.4,0.3,0.8,0.7,0.9c0.5,0.1,1-0.2,1.1-0.7c0.5-2.7,2.9-4.6,5.7-4.6c0.6,0,1.1,0.1,1.7,0.3c0.1,0.1,0.2,0.1,0.3,0.2
		c2.3,0.5,4,2.6,4,5c0,2.8-2.3,5.1-5.1,5.1L61.1,56.6z M70.9,51.5c0-1.6-0.5-3.1-1.5-4.3c-0.8-1-1.9-1.8-3.1-2.2
		c-0.3-4.4-4.1-7.9-8.7-7.9c-0.9,0-1.8,0.1-2.6,0.4c-1.3-3.1-4.4-5.2-8-5.2c-2.2,0-4.4,0.8-5.9,2.3c-0.9-0.3-1.8-0.4-2.7-0.4
		c-4.9,0-8.8,3.8-8.8,8.5c0,0,0,0.1,0,0.1c-3.5,1-6,4.1-6,7.7c0,3.8,2.8,7.1,6.7,7.8c0.1,0,0.1,0,0.2,0l29.7,0.1c0.1,0,0.2,0,0.3,0
		l3.6,0C67.8,58.4,70.9,55.4,70.9,51.5"/>
</g>
</svg>
