<?xml version="1.0" encoding="utf-8"?>
<!-- Generator: Adobe Illustrator 19.1.0, SVG Export Plug-In . SVG Version: 6.00 Build 0)  -->
<svg version="1.1" id="Layer_1" xmlns="http://www.w3.org/2000/svg" xmlns:xlink="http://www.w3.org/1999/xlink" x="0px" y="0px"
	 viewBox="0 0 65 65" style="enable-background:new 0 0 65 65;" xml:space="preserve">
<style type="text/css">
	.st0{clip-path:url(#SVGID_2_);fill:#566BB3;}
</style>
<g>
	<defs>
		<rect id="SVGID_1_" width="65" height="65"/>
	</defs>
	<clipPath id="SVGID_2_">
		<use xlink:href="#SVGID_1_"  style="overflow:visible;"/>
	</clipPath>
	<path class="st0" d="M1.1,32.5c0-17.3,14.1-31.4,31.4-31.4s31.4,14.1,31.4,31.4S49.8,63.9,32.5,63.9S1.1,49.8,1.1,32.5 M0,32.5
		C0,50.4,14.6,65,32.5,65S65,50.4,65,32.5C65,14.6,50.4,0,32.5,0S0,14.6,0,32.5"/>
	<path class="st0" d="M42.1,39c0-0.5,0-1.2,0.4-1.8c0.5-1,1.4-1.5,1.5-1.5c0.3-0.1,0.4-0.5,0.3-0.8c-0.1-0.3-0.5-0.4-0.8-0.3
		c-0.1,0-1.3,0.6-2,2.1c-0.4,0.8-0.5,1.7-0.5,2.3c0,0,0,0.1,0,0.1l-5.7,0c0.5-0.9,0.8-1.9,0.8-2.9c0-1.7-0.8-3.3-2.1-4.4
		c0.5-0.8,0.8-1.7,0.8-2.7c0-0.3,0-0.6-0.1-0.9c0.3-0.1,0.6-0.2,0.9-0.4c0.3-0.2,0.4-0.6,0.2-0.9c-0.2-0.3-0.6-0.4-0.9-0.2
		c-0.3,0.2-0.6,0.3-0.9,0.3c-0.7,0-1.3-0.4-1.6-1.1c-0.1-0.3-0.5-0.5-0.8-0.4c-0.2,0.1-0.4,0.3-0.4,0.6c0,0.1,0,0.1,0,0.2
		c0.4,1,1.2,1.6,2.1,1.9c0.1,0.3,0.1,0.6,0.1,0.9c0,0.7-0.2,1.4-0.6,2c-0.1,0-0.2-0.1-0.3-0.1c-0.3-0.1-0.7,0-0.8,0.3
		c0,0.1,0,0.2,0,0.2c0,0.2,0.1,0.5,0.4,0.6c1.6,0.7,2.7,2.3,2.7,4c0,1.1-0.4,2.1-1.1,2.9l-5.8,0c0-0.1,0-0.3,0-0.4
		c0-1.4,0.8-2.6,2-3.3c0.4-0.2,0.9-0.3,1.4-0.4c0.1,0,0.1,0,0.2,0c0.1,0,0.1,0,0.2,0c0.3-0.1,0.5-0.3,0.5-0.6c0-0.3-0.3-0.6-0.6-0.6
		c-0.1,0-0.2,0-0.3,0c-1.4-0.1-2.5-1.2-2.6-2.6c0-0.1,0-0.1,0-0.2c0,0,0,0,0,0c0-1.1,0.6-2.1,1.6-2.6c0.3-0.1,0.4-0.5,0.3-0.8
		c-0.1-0.3-0.5-0.4-0.8-0.3c-0.8,0.4-1.5,1-1.9,1.8c-0.6-0.8-1.6-1.2-2.6-1.2c-0.3,0-0.6,0.3-0.6,0.6c0,0.3,0.3,0.6,0.6,0.6
		c0.8,0,1.6,0.5,2,1.3c0.1,0.2,0.2,0.5,0.2,0.7c0,0.1,0,0.1,0,0.2c0,0,0,0,0,0c0,0,0,0.1,0,0.1c0.1,1.2,0.8,2.3,1.8,3
		c-1.6,0.9-2.6,2.5-2.6,4.3c0,0.1,0,0.3,0,0.4l-5.5,0c-2.1-0.4-3.6-2.2-3.6-4.2c0-2,1.5-3.7,3.5-4.2c0,0,0.1,0,0.1,0
		c0.1,0,0.2,0,0.2,0c0.9,0,1.7,0.5,2.2,1.2c-0.6,0.7-1,1.6-1.1,2.5c-0.3-0.1-0.6-0.2-0.9-0.2c-0.6,0-1.3,0.2-1.8,0.7
		c-0.1,0.1-0.2,0.3-0.2,0.5c0,0.1,0,0.3,0.1,0.4c0.2,0.3,0.6,0.3,0.9,0.1c0.3-0.2,0.6-0.3,0.9-0.3c0.4,0,0.7,0.1,1,0.4
		c0.1,0.6,0.4,1.1,0.7,1.5c0.2,0.3,0.6,0.3,0.9,0.1c0.3-0.2,0.3-0.6,0.1-0.9c-0.4-0.5-0.6-1.2-0.6-1.8c0-0.9,0.4-1.8,1.1-2.4
		c0,0,0,0,0,0c0.2-0.2,0.3-0.5,0.2-0.7c-0.6-1.3-1.9-2.1-3.3-2.2c0-2.5,2.2-4.6,4.8-4.6c0.6,0,1.2,0.1,1.8,0.3
		c0.2,0.1,0.5,0,0.7-0.2c0.9-0.9,2.1-1.5,3.5-1.5c2.1,0,4,1.4,4.5,3.3c0,0.2,0.2,0.3,0.3,0.4c0.2,0.1,0.4,0.1,0.5,0
		c0.6-0.3,1.3-0.4,2-0.4c2.4,0,4.3,1.7,4.7,3.8c-0.3,0-0.6-0.1-0.9-0.1c-1.1,0-2.2,0.4-3.1,1c-0.6-0.9-1.5-1.5-2.5-1.8
		c-0.3-0.1-0.7,0.1-0.8,0.4c0,0.1,0,0.1,0,0.2c0,0.3,0.2,0.5,0.4,0.6c0.8,0.3,1.5,0.8,1.9,1.5c-0.6,0.7-1,1.5-1.1,2.3
		c0,0,0,0.1,0,0.1c0,0.3,0.2,0.5,0.5,0.6c0.3,0.1,0.7-0.1,0.7-0.5c0.4-1.8,2-3.2,3.9-3.2c0.4,0,0.8,0.1,1.2,0.2
		c0.1,0,0.1,0.1,0.2,0.1c1.6,0.4,2.7,1.8,2.7,3.4c0,1.9-1.6,3.5-3.5,3.5L42.1,39z M48.8,35.5c0-1.1-0.4-2.1-1.1-3
		c-0.6-0.7-1.3-1.2-2.2-1.5c-0.2-3-2.8-5.4-6-5.4c-0.6,0-1.2,0.1-1.8,0.3c-0.9-2.2-3-3.6-5.5-3.6c-1.5,0-3,0.6-4.1,1.6
		c-0.6-0.2-1.2-0.3-1.8-0.3c-3.4,0-6.1,2.6-6.1,5.8c0,0,0,0,0,0.1c-2.4,0.7-4.1,2.8-4.1,5.3c0,2.6,2,4.9,4.6,5.4c0,0,0.1,0,0.1,0
		l20.5,0.1c0.1,0,0.1,0,0.2,0l2.5,0C46.7,40.3,48.8,38.1,48.8,35.5"/>
</g>
</svg>
