<?xml version="1.0" encoding="utf-8"?>
<!-- Generator: Adobe Illustrator 19.1.0, SVG Export Plug-In . SVG Version: 6.00 Build 0)  -->
<svg version="1.1" id="Layer_1" xmlns="http://www.w3.org/2000/svg" xmlns:xlink="http://www.w3.org/1999/xlink" x="0px" y="0px"
	 viewBox="0 0 214.9 214.9" style="enable-background:new 0 0 214.9 214.9;" xml:space="preserve">
<style type="text/css">
	.st0{clip-path:url(#SVGID_2_);fill:#316266;}
	.st1{fill:#316266;}
	.st2{clip-path:url(#SVGID_4_);fill:#316266;}
	.st3{clip-path:url(#SVGID_6_);fill:#316266;}
</style>
<g>
	<defs>
		<rect id="SVGID_1_" y="0" width="214.9" height="214.9"/>
	</defs>
	<clipPath id="SVGID_2_">
		<use xlink:href="#SVGID_1_"  style="overflow:visible;"/>
	</clipPath>
	<path class="st0" d="M3.7,107.4C3.7,50.2,50.2,3.7,107.4,3.7c57.2,0,103.7,46.5,103.7,103.7s-46.5,103.7-103.7,103.7
		C50.2,211.1,3.7,164.6,3.7,107.4 M0,107.4c0,59.2,48.2,107.4,107.4,107.4c59.2,0,107.4-48.2,107.4-107.4
		C214.9,48.2,166.7,0,107.4,0C48.2,0,0,48.2,0,107.4"/>
</g>
<path class="st1" d="M73.9,146.9l-4.8-1.3l-1.3-4.8l3.5-3.5l4.8,1.3l1.3,4.8L73.9,146.9z M70,132.3l-7.2,7.2l2.6,9.8l9.8,2.6
	l7.2-7.2l-2.6-9.8L70,132.3z"/>
<g>
	<defs>
		<rect id="SVGID_3_" y="0" width="214.9" height="214.9"/>
	</defs>
	<clipPath id="SVGID_4_">
		<use xlink:href="#SVGID_3_"  style="overflow:visible;"/>
	</clipPath>
	<path class="st2" d="M81.9,151.4c-2.5,2.5-5.8,3.9-9.3,3.9c-3.5,0-6.8-1.4-9.3-3.9c-2.5-2.5-3.9-5.8-3.9-9.3c0-3.5,1.4-6.8,3.9-9.3
		c2.5-2.5,5.8-3.8,9.3-3.8c1.3,0,2.6,0.2,3.8,0.6l1.3,0.4l46.7-46.7l-0.6-1.4c-2.5-6.1-1.1-13,3.6-17.6c2.4-2.4,5.4-3.9,8.6-4.5
		l-5.4,5.4l5.2,13.7l13.7,5.2l5.4-5.4c-0.6,3.2-2.1,6.2-4.5,8.6c-3.1,3.1-7.1,4.8-11.5,4.8c-2.1,0-4.2-0.4-6.1-1.2l-1.4-0.6
		l-46.6,46.6l0.4,1.3C86.6,142.8,85.3,147.9,81.9,151.4 M132.4,95.4c2.1,0.7,4.2,1,6.4,1c5.5,0,10.7-2.2,14.6-6.1
		c4.6-4.6,6.8-11,5.8-17.5l-0.6-4.4l-10.3,10.4l-9.1-3.4l-3.4-9.1l10.4-10.4l-4.4-0.6c-6.4-0.9-12.9,1.3-17.5,5.8
		c-5.5,5.5-7.4,13.6-5.1,21l-42.8,42.8c-1.2-0.3-2.5-0.4-3.8-0.4c-4.7,0-9.1,1.8-12.4,5.1c-3.3,3.3-5.2,7.7-5.2,12.4
		c0,4.7,1.8,9.1,5.2,12.4c3.3,3.3,7.7,5.2,12.4,5.2c4.7,0,9.1-1.8,12.4-5.2c4.3-4.3,6.1-10.5,4.7-16.4L132.4,95.4z"/>
</g>
<polygon class="st1" points="121.8,111.3 111.4,121.7 114.3,124.6 124.7,114.2 "/>
<g>
	<defs>
		<rect id="SVGID_5_" y="0" width="214.9" height="214.9"/>
	</defs>
	<clipPath id="SVGID_6_">
		<use xlink:href="#SVGID_5_"  style="overflow:visible;"/>
	</clipPath>
	<path class="st3" d="M155.2,152.2l-2.9,2.9c-0.2,0.2-0.5,0.3-0.8,0.3c-0.6,0-1.2-0.3-1.7-0.8l-27.2-27.2l4.8-4.8l27.2,27.2
		C155.5,150.7,155.6,151.8,155.2,152.2 M157.8,146.7l-30.4-30.4l-11.1,11.1l30.4,30.4c1.3,1.3,3.1,2.1,4.8,2.1
		c1.5,0,2.9-0.6,3.9-1.6l2.9-2.9C160.6,153.1,160.3,149.2,157.8,146.7"/>
</g>
<polygon class="st1" points="65.3,68.6 96.6,99.9 99.7,96.7 68.5,65.5 70,63.9 63,56.9 61.5,58.5 58.3,61.6 56.7,63.2 63.7,70.2 "/>
</svg>
