<?xml version="1.0" encoding="utf-8"?>
<!-- Generator: Adobe Illustrator 19.1.0, SVG Export Plug-In . SVG Version: 6.00 Build 0)  -->
<svg version="1.1" id="Layer_1" xmlns="http://www.w3.org/2000/svg" xmlns:xlink="http://www.w3.org/1999/xlink" x="0px" y="0px"
	 viewBox="0 0 394.7 394.7" style="enable-background:new 0 0 394.7 394.7;" xml:space="preserve">
<style type="text/css">
	.st0{fill:#316266;}
	.st1{fill:#FFFFFF;stroke:#FFFFFF;stroke-width:0.5;stroke-miterlimit:10;}
</style>
<g id="XMLID_162_">
	<path id="XMLID_165_" class="st0" d="M0,197.4c0,108.8,88.5,197.4,197.4,197.4s197.4-88.5,197.4-197.4C394.7,88.5,306.2,0,197.4,0
		C88.5,0,0,88.5,0,197.4z"/>
	<path id="XMLID_164_" class="st0" d="M6.8,197.4C6.8,92.3,92.3,6.8,197.4,6.8s190.5,85.5,190.5,190.5s-85.5,190.5-190.5,190.5
		S6.8,302.4,6.8,197.4z"/>
</g>
<g>
	<g>
		<path class="st1" d="M317.1,310.8H77.4c-1.2,0-2.2-1-2.2-2.2V174c0-1.2,1-2.2,2.2-2.2h14.9c1.2,0,2.2,1,2.2,2.2
			c0,1.2-1,2.2-2.2,2.2H79.6v130.2h235.3l0.3-130.2h-15.1c-1.2,0-2.2-1-2.2-2.2c0-1.2,1-2.2,2.2-2.2h17.3c0.6,0,1.1,0.2,1.6,0.6
			c0.4,0.4,0.6,1,0.6,1.6l-0.3,134.6C319.3,309.8,318.3,310.8,317.1,310.8z"/>
		<path class="st1" d="M152.3,176.2h-28c-1.2,0-2.2-1-2.2-2.2c0-1.2,1-2.2,2.2-2.2h28c1.2,0,2.2,1,2.2,2.2
			C154.5,175.2,153.5,176.2,152.3,176.2z"/>
		<path class="st1" d="M162.4,199.6h-49.9c-1.2,0-2.2-1-2.2-2.2c0-1.2,1-2.2,2.2-2.2h49.9c1.2,0,2.2,1,2.2,2.2
			C164.6,198.6,163.6,199.6,162.4,199.6z"/>
		<g>
			<path class="st1" d="M162.4,223h-49.9c-1.2,0-2.2-1-2.2-2.2c0-1.2,1-2.2,2.2-2.2h49.9c1.2,0,2.2,1,2.2,2.2
				C164.6,222,163.6,223,162.4,223z"/>
			<path class="st1" d="M179.9,246.4h-67.3c-1.2,0-2.2-1-2.2-2.2c0-1.2,1-2.2,2.2-2.2h67.3c1.2,0,2.2,1,2.2,2.2
				C182,245.4,181.1,246.4,179.9,246.4z"/>
			<path class="st1" d="M179.9,269.8h-67.3c-1.2,0-2.2-1-2.2-2.2c0-1.2,1-2.2,2.2-2.2h67.3c1.2,0,2.2,1,2.2,2.2
				C182,268.8,181.1,269.8,179.9,269.8z"/>
		</g>
		<g>
			<path class="st1" d="M282.3,223h-49.7c-1.2,0-2.2-1-2.2-2.2c0-1.2,1-2.2,2.2-2.2h49.7c1.2,0,2.2,1,2.2,2.2
				C284.5,222,283.5,223,282.3,223z"/>
			<path class="st1" d="M282.3,246.4H215c-1.2,0-2.2-1-2.2-2.2c0-1.2,1-2.2,2.2-2.2h67.3c1.2,0,2.2,1,2.2,2.2
				C284.5,245.4,283.5,246.4,282.3,246.4z"/>
			<path class="st1" d="M282.3,269.8H215c-1.2,0-2.2-1-2.2-2.2c0-1.2,1-2.2,2.2-2.2h67.3c1.2,0,2.2,1,2.2,2.2
				C284.5,268.8,283.5,269.8,282.3,269.8z"/>
		</g>
		<path class="st1" d="M270.6,176.2h-27.9c-1.2,0-2.2-1-2.2-2.2c0-1.2,1-2.2,2.2-2.2h27.9c1.2,0,2.2,1,2.2,2.2
			C272.8,175.2,271.8,176.2,270.6,176.2z"/>
		<path class="st1" d="M282.3,199.6h-49.7c-1.2,0-2.2-1-2.2-2.2c0-1.2,1-2.2,2.2-2.2h49.7c1.2,0,2.2,1,2.2,2.2
			C284.5,198.6,283.5,199.6,282.3,199.6z"/>
		<g>
			<path class="st1" d="M299.6,293.2H95c-1.2,0-2.2-1-2.2-2.2V150.5c0-1.2,1-2.2,2.2-2.2h48.3c1.2,0,2.2,1,2.2,2.2
				c0,1.2-1,2.2-2.2,2.2H97.2v136.1h200.2l0.3-136.1h-46c-1.2,0-2.2-1-2.2-2.2c0-1.2,1-2.2,2.2-2.2h48.2c0.6,0,1.1,0.2,1.6,0.6
				c0.4,0.4,0.6,1,0.6,1.6L301.8,291C301.8,292.2,300.8,293.2,299.6,293.2z"/>
			<path class="st1" d="M197.4,293.2c-1.2,0-2.2-1-2.2-2.2v-58.6c0-1.2,1-2.2,2.2-2.2c1.2,0,2.2,1,2.2,2.2V291
				C199.6,292.2,198.6,293.2,197.4,293.2z"/>
		</g>
	</g>
	<g>
		<g>
			<path class="st1" d="M216.3,201.1h-37.7c-1.2,0-2.2-1-2.2-2.2v-13.5c-0.3-0.4-1.2-1.3-3.2-2.7c-11-7.6-17.6-20.4-17.6-34.1
				c0-23.1,18.8-41.9,41.9-41.9c23.1,0,41.9,18.8,41.9,41.9c0,14.2-6.9,27.4-18,34.4c-3.1,2-2.9,5.5-2.9,5.5l0,10.4
				C218.5,200.1,217.5,201.1,216.3,201.1z M180.7,196.7h33.4v-8c0-0.1-0.4-6,4.9-9.4c9.8-6.2,15.9-18,15.9-30.7
				c0-20.7-16.8-37.5-37.5-37.5c-20.7,0-37.5,16.8-37.5,37.5c0,12.3,5.9,23.7,15.7,30.5c3.8,2.6,4.7,4.2,5,4.8
				c0.1,0.3,0.2,0.5,0.2,0.8V196.7z"/>
			<path class="st1" d="M215.9,212.2h-37.4c-1.2,0-2.2-1-2.2-2.2c0-1.2,1-2.2,2.2-2.2h37.4c1.2,0,2.2,1,2.2,2.2
				C218.1,211.2,217.1,212.2,215.9,212.2z"/>
			<path class="st1" d="M209,223.2h-23.5c-1.2,0-2.2-1-2.2-2.2c0-1.2,1-2.2,2.2-2.2H209c1.2,0,2.2,1,2.2,2.2
				C211.1,222.2,210.2,223.2,209,223.2z"/>
		</g>
		<g>
			<path class="st1" d="M196.4,98.8c-1.2,0-2.2-1-2.2-2.2V72c0-1.2,1-2.2,2.2-2.2c1.2,0,2.2,1,2.2,2.2v24.5
				C198.6,97.8,197.7,98.8,196.4,98.8z"/>
			<path class="st1" d="M156.1,112.6c-0.6,0-1.1-0.2-1.6-0.6l-17.4-17.4c-0.9-0.9-0.9-2.2,0-3.1c0.9-0.9,2.2-0.9,3.1,0l17.4,17.4
				c0.9,0.9,0.9,2.2,0,3.1C157.3,112.4,156.7,112.6,156.1,112.6z"/>
			<path class="st1" d="M238.7,112.6c-0.6,0-1.1-0.2-1.6-0.6c-0.9-0.9-0.9-2.2,0-3.1l17.4-17.4c0.9-0.9,2.2-0.9,3.1,0
				c0.9,0.9,0.9,2.2,0,3.1L240.2,112C239.8,112.4,239.3,112.6,238.7,112.6z"/>
		</g>
	</g>
</g>
</svg>
