<?xml version="1.0" encoding="utf-8"?>
<!-- Generator: Adobe Illustrator 19.1.0, SVG Export Plug-In . SVG Version: 6.00 Build 0)  -->
<svg version="1.1" id="Layer_1" xmlns="http://www.w3.org/2000/svg" xmlns:xlink="http://www.w3.org/1999/xlink" x="0px" y="0px"
	 viewBox="0 0 134.6 134.6" style="enable-background:new 0 0 134.6 134.6;" xml:space="preserve">
<style type="text/css">
	.st0{clip-path:url(#SVGID_2_);fill:#566BB3;}
	.st1{fill:#566BB3;}
</style>
<g>
	<defs>
		<rect id="SVGID_1_" width="134.6" height="134.6"/>
	</defs>
	<clipPath id="SVGID_2_">
		<use xlink:href="#SVGID_1_"  style="overflow:visible;"/>
	</clipPath>
	<path class="st0" d="M67.3,129.3c-34.2,0-62-27.8-62-62c0-34.2,27.8-62,62-62s62,27.8,62,62C129.3,101.5,101.5,129.3,67.3,129.3
		 M67.3,0C30.2,0,0,30.2,0,67.3c0,37.1,30.2,67.3,67.3,67.3c37.1,0,67.3-30.2,67.3-67.3C134.6,30.2,104.4,0,67.3,0"/>
</g>
<polygon class="st1" points="62.4,86.1 39.8,64.7 36.1,68.5 59.2,90.3 62.4,93.6 66.1,89.9 66,89.9 103.4,52.6 99.6,48.9 "/>
</svg>
